<svg width="245" height="162" viewBox="0 0 245 162" fill="none" xmlns="http://www.w3.org/2000/svg">
<g clip-path="url(#clip0_1_2615)">
<path d="M215.22 0.15332H29.3813C24.0282 0.15332 19.6887 4.49284 19.6887 9.84591V141.912C19.6887 147.265 24.0282 151.604 29.3813 151.604H215.22C220.573 151.604 224.913 147.265 224.913 141.912V9.84591C224.913 4.49284 220.573 0.15332 215.22 0.15332Z" fill="#5C5B5B"/>
<path d="M204.119 12.8311H38.8637C36.1874 12.8311 34.0178 15.0006 34.0178 17.6769V134.079C34.0178 136.756 36.1874 138.925 38.8637 138.925H204.119C206.795 138.925 208.965 136.756 208.965 134.079V17.6769C208.965 15.0006 206.795 12.8311 204.119 12.8311Z" fill="white"/>
<path d="M34.0967 110.181H209.419V134.121C209.419 135.407 208.908 136.64 207.999 137.548C207.091 138.457 205.858 138.968 204.572 138.968H38.9434C38.3069 138.968 37.6765 138.843 37.0884 138.599C36.5004 138.355 35.966 137.998 35.5159 137.548C35.0659 137.098 34.7089 136.564 34.4654 135.975C34.2218 135.387 34.0966 134.757 34.0967 134.12V110.18V110.181Z" fill="#70D700"/>
<path d="M71.5098 124.409L74.8368 127.7C74.9531 127.815 75.1103 127.88 75.274 127.88C75.4377 127.88 75.5948 127.815 75.7112 127.7L82.0625 121.415" stroke="white" stroke-width="2.79531" stroke-linecap="round"/>
<path d="M175.895 33.1377H72.9497C71.095 33.1377 69.5916 34.6412 69.5916 36.4958V36.4967C69.5916 38.3513 71.095 39.8548 72.9497 39.8548H175.895C177.75 39.8548 179.253 38.3513 179.253 36.4967V36.4958C179.253 34.6412 177.75 33.1377 175.895 33.1377Z" fill="#D2E4E8"/>
<path d="M105.566 33.1377H72.9497C71.095 33.1377 69.5916 34.6412 69.5916 36.4958V36.4967C69.5916 38.3513 71.095 39.8548 72.9497 39.8548H105.566C107.42 39.8548 108.924 38.3513 108.924 36.4967V36.4958C108.924 34.6412 107.42 33.1377 105.566 33.1377Z" fill="#70D700"/>
<path d="M1.61558 147.009H242.985C243.197 147.009 243.407 147.051 243.603 147.132C243.8 147.213 243.978 147.332 244.128 147.482C244.278 147.632 244.397 147.811 244.478 148.007C244.559 148.203 244.601 148.413 244.601 148.625V154.283C244.601 158.301 241.346 161.558 237.33 161.558H7.27011C3.25513 161.558 2.43891e-07 158.3 2.43891e-07 154.283V148.625C-0.000116369 148.413 0.0415858 148.203 0.122724 148.007C0.203862 147.811 0.322847 147.632 0.472879 147.482C0.622911 147.332 0.80105 147.213 0.997119 147.132C1.19319 147.051 1.40334 147.009 1.61558 147.009Z" fill="#C1C9CB"/>
<path opacity="0.4" d="M147.256 121.257H91.615C90.8203 121.257 90.176 121.901 90.176 122.696V122.697C90.176 123.491 90.8203 124.136 91.615 124.136H147.256C148.05 124.136 148.695 123.491 148.695 122.697V122.696C148.695 121.901 148.05 121.257 147.256 121.257Z" fill="white"/>
<path opacity="0.4" d="M119.435 127.015H91.615C90.8203 127.015 90.176 127.659 90.176 128.454V128.454C90.176 129.249 90.8203 129.893 91.615 129.893H119.435C120.23 129.893 120.874 129.249 120.874 128.454V128.454C120.874 127.659 120.23 127.015 119.435 127.015Z" fill="white"/>
<path d="M93.5376 59.2061H75.1431C72.4957 59.2061 70.3496 61.3522 70.3496 63.9995V84.7997C70.3496 87.447 72.4957 89.5932 75.1431 89.5932H93.5376C96.185 89.5932 98.3311 87.447 98.3311 84.7997V63.9995C98.3311 61.3522 96.185 59.2061 93.5376 59.2061Z" stroke="#D2E4E8" stroke-width="1.59783"/>
<path d="M133.509 59.2061H115.115C112.467 59.2061 110.321 61.3522 110.321 63.9995V84.7997C110.321 87.447 112.467 89.5932 115.115 89.5932H133.509C136.156 89.5932 138.303 87.447 138.303 84.7997V63.9995C138.303 61.3522 136.156 59.2061 133.509 59.2061Z" fill="#D2E4E8" stroke="#D2E4E8" stroke-width="1.59783"/>
<path d="M173.48 59.2061H155.086C152.439 59.2061 150.292 61.3522 150.292 63.9995V84.7997C150.292 87.447 152.439 89.5932 155.086 89.5932H173.48C176.128 89.5932 178.274 87.447 178.274 84.7997V63.9995C178.274 61.3522 176.128 59.2061 173.48 59.2061Z" stroke="#D2E4E8" stroke-width="1.59783"/>
</g>
<defs>
<clipPath id="clip0_1_2615">
<rect width="245" height="161.558" fill="white"/>
</clipPath>
</defs>
</svg>
