<svg width="245" height="163" viewBox="0 0 245 163" fill="none" xmlns="http://www.w3.org/2000/svg">
<g clip-path="url(#clip0_1_2614)">
<path d="M215.22 0.84082H29.3813C24.0282 0.84082 19.6887 5.18034 19.6887 10.5334V142.599C19.6887 147.952 24.0282 152.292 29.3813 152.292H215.22C220.573 152.292 224.913 147.952 224.913 142.599V10.5334C224.913 5.18034 220.573 0.84082 215.22 0.84082Z" fill="#5C5B5B"/>
<path d="M204.119 13.5186H38.8636C36.1873 13.5186 34.0177 15.6881 34.0177 18.3644V134.767C34.0177 137.443 36.1873 139.613 38.8636 139.613H204.119C206.795 139.613 208.965 137.443 208.965 134.767V18.3644C208.965 15.6881 206.795 13.5186 204.119 13.5186Z" fill="white"/>
<path d="M34.0967 110.869H209.419V134.809C209.419 136.094 208.908 137.327 207.999 138.236C207.091 139.145 205.858 139.656 204.572 139.656H38.9434C38.3069 139.656 37.6765 139.53 37.0884 139.287C36.5004 139.043 35.966 138.686 35.5159 138.236C35.0659 137.786 34.7089 137.251 34.4654 136.663C34.2218 136.075 34.0966 135.445 34.0967 134.808V110.867V110.869Z" fill="#70D700"/>
<path d="M71.5098 125.097L74.8368 128.387C74.9531 128.503 75.1103 128.567 75.274 128.567C75.4377 128.567 75.5948 128.503 75.7112 128.387L82.0625 122.103" stroke="white" stroke-width="2.79531" stroke-linecap="round"/>
<path d="M175.895 33.8252H72.9497C71.095 33.8252 69.5916 35.3287 69.5916 37.1833V37.1842C69.5916 39.0388 71.095 40.5423 72.9497 40.5423H175.895C177.75 40.5423 179.253 39.0388 179.253 37.1842V37.1833C179.253 35.3287 177.75 33.8252 175.895 33.8252Z" fill="#D2E4E8"/>
<path d="M105.566 33.8252H72.9497C71.095 33.8252 69.5916 35.3287 69.5916 37.1833V37.1842C69.5916 39.0388 71.095 40.5423 72.9497 40.5423H105.566C107.42 40.5423 108.924 39.0388 108.924 37.1842V37.1833C108.924 35.3287 107.42 33.8252 105.566 33.8252Z" fill="#70D700"/>
<path d="M1.61558 147.696H242.985C243.197 147.696 243.407 147.738 243.603 147.819C243.8 147.901 243.978 148.02 244.128 148.17C244.278 148.32 244.397 148.498 244.478 148.694C244.559 148.89 244.601 149.101 244.601 149.313V154.971C244.601 158.988 241.346 162.245 237.33 162.245H7.27011C3.25513 162.245 2.43891e-07 158.988 2.43891e-07 154.971V149.313C-0.000116369 149.101 0.0415858 148.89 0.122724 148.694C0.203862 148.498 0.322847 148.32 0.472879 148.17C0.622911 148.02 0.80105 147.901 0.997119 147.819C1.19319 147.738 1.40334 147.696 1.61558 147.696Z" fill="#C1C9CB"/>
<path opacity="0.25" d="M273.221 -39.2583V95.1899L45.088 -39.2583H273.221Z" fill="white"/>
<path opacity="0.4" d="M147.256 121.945H91.615C90.8203 121.945 90.176 122.589 90.176 123.384V123.385C90.176 124.179 90.8203 124.824 91.615 124.824H147.256C148.05 124.824 148.695 124.179 148.695 123.385V123.384C148.695 122.589 148.05 121.945 147.256 121.945Z" fill="white"/>
<path opacity="0.4" d="M119.435 127.702H91.615C90.8203 127.702 90.176 128.346 90.176 129.141V129.142C90.176 129.937 90.8203 130.581 91.615 130.581H119.435C120.23 130.581 120.874 129.937 120.874 129.142V129.141C120.874 128.346 120.23 127.702 119.435 127.702Z" fill="white"/>
<path d="M93.5376 59.894H75.1431C72.4957 59.894 70.3496 62.0402 70.3496 64.6875V85.4877C70.3496 88.135 72.4957 90.2811 75.1431 90.2811H93.5376C96.185 90.2811 98.3311 88.135 98.3311 85.4877V64.6875C98.3311 62.0402 96.185 59.894 93.5376 59.894Z" stroke="#D2E4E8" stroke-width="1.59783"/>
<path d="M133.509 59.894H115.115C112.467 59.894 110.321 62.0402 110.321 64.6875V85.4877C110.321 88.135 112.467 90.2811 115.115 90.2811H133.509C136.156 90.2811 138.303 88.135 138.303 85.4877V64.6875C138.303 62.0402 136.156 59.894 133.509 59.894Z" fill="#D2E4E8" stroke="#D2E4E8" stroke-width="1.59783"/>
<path d="M173.48 59.894H155.086C152.439 59.894 150.292 62.0402 150.292 64.6875V85.4877C150.292 88.135 152.439 90.2811 155.086 90.2811H173.48C176.128 90.2811 178.274 88.135 178.274 85.4877V64.6875C178.274 62.0402 176.128 59.894 173.48 59.894Z" stroke="#D2E4E8" stroke-width="1.59783"/>
</g>
<defs>
<clipPath id="clip0_1_2614">
<rect width="245" height="161.558" fill="white" transform="translate(0 0.6875)"/>
</clipPath>
</defs>
</svg>
