<svg width="360" height="360" viewBox="0 0 360 360" fill="none" xmlns="http://www.w3.org/2000/svg">
<g clip-path="url(#clip0_203_34)">
<path d="M180.344 360.5C279.755 360.5 360.344 279.911 360.344 180.5C360.344 81.0887 279.755 0.5 180.344 0.5C80.9324 0.5 0.34375 81.0887 0.34375 180.5C0.34375 279.911 80.9324 360.5 180.344 360.5Z" fill="#24D4DE" fill-opacity="0.04"/>
<path d="M180.726 331.898C264.13 331.898 331.742 264.286 331.742 180.882C331.742 97.4779 264.13 29.8657 180.726 29.8657C97.3217 29.8657 29.7095 97.4779 29.7095 180.882C29.7095 264.286 97.3217 331.898 180.726 331.898Z" fill="#24D4DE" fill-opacity="0.06"/>
<path d="M138.878 62.0621C142.396 63.9 146.313 64.4414 150.629 63.6863C153.322 63.2162 155.095 62.9882 155.95 63.0024C162.189 63.152 168.321 66.5715 166.74 73.624C165.244 80.3347 158.022 80.8262 159.561 89.4816C159.119 92.8441 157.645 95.7862 155.138 98.308C153.528 99.9323 152.595 101.143 152.339 101.941C151.627 104.064 152.438 105.688 154.775 106.814C163.15 110.832 169.29 114.814 173.193 118.76C169.689 124.061 162.68 130.814 169.71 136.691C183.114 147.861 198.071 150.611 214.58 144.94C218.597 143.551 222.336 140.688 226.096 138.572C227.464 137.806 229.06 137.555 230.597 137.865C232.133 138.175 233.508 139.024 234.472 140.26C238.902 145.916 244.928 147.263 252.548 144.299C254.963 143.359 255.818 141.094 256.544 138.828C257.933 134.575 261.907 132.695 265.924 131.113C277.049 126.725 285.41 123.683 291.008 121.988L296.991 120.534C297.905 120.315 298.865 120.417 299.713 120.821C300.561 121.226 301.244 121.909 301.649 122.757C306.734 133.471 306.984 142.953 302.397 151.202C301.499 151.915 299.876 153.803 297.525 156.866C292.169 163.819 288.523 170.337 286.586 176.421C284.762 182.162 283.046 188.332 281.436 194.928C280.311 199.502 278.395 203.22 275.689 206.084C271.479 210.529 266.544 206.64 265.091 202.088C263.467 197.001 262.121 190.098 257.741 186.7C255.86 185.233 254.229 183.552 252.848 181.657C252.486 181.169 252.278 180.582 252.249 179.968C251.907 172.146 240.519 171.847 236.331 176.613C235.861 177.154 235.598 177.781 235.541 178.494C235.127 183.68 236.766 188.752 240.455 193.71C241.865 195.591 242.634 198.006 241.566 200.271C239.059 205.571 235.419 207.808 230.648 206.982C216.417 204.503 222.998 215.445 215.969 219.078C211.154 221.571 206.14 224.592 200.927 228.139C195.229 219.847 189.887 211.548 184.902 203.242C181.761 198.027 179.539 196.317 174.026 194.501C163.984 191.167 154.611 189.108 145.907 188.324C141.663 187.926 141.321 188.902 144.882 191.252C152.602 196.339 160.907 201.211 169.795 205.87C176.056 209.162 177.017 231.025 176.718 236.859C176.672 237.677 176.408 238.468 175.954 239.152C175.499 239.835 174.871 240.386 174.133 240.749L155.138 249.917C153.945 250.49 152.897 251.326 152.072 252.362C151.247 253.398 150.666 254.608 150.373 255.901C148.991 261.928 147.531 267.89 145.993 273.789C145.608 275.256 144.903 276.446 143.878 277.358C143.242 277.928 142.41 278.229 141.557 278.197C140.704 278.166 139.896 277.803 139.305 277.187C130.231 267.627 121.735 256.15 113.815 242.758C111.721 239.21 110.318 235.171 109.605 230.64C107.91 219.712 106.023 209.304 103.943 199.416C102.341 191.744 92.448 186.316 86.3158 182.148C85.6656 181.706 85.142 181.105 84.7972 180.404C84.4523 179.703 84.2982 178.926 84.35 178.152C84.991 168.727 87.3414 148.595 95.5889 142.974C108.772 134.02 121.186 125.706 120.823 107.776C120.609 97.1184 116.82 88.349 109.456 81.4674C108.601 80.7692 107.839 79.7505 107.17 78.4112C106.116 75.4477 104.891 72.1565 103.495 68.5376C101.002 62.0692 103.003 58.1084 109.499 56.6551C120.125 54.29 129.918 56.0923 138.878 62.0621Z" fill="#3ECE5D"/>
<path d="M291.008 121.988C285.41 123.683 277.049 126.725 265.924 131.113C261.907 132.695 257.933 134.575 256.544 138.828C255.817 141.094 254.963 143.359 252.548 144.299C244.928 147.263 238.902 145.917 234.472 140.26C233.508 139.024 232.133 138.175 230.597 137.865C229.06 137.555 227.464 137.806 226.096 138.572C222.336 140.688 218.597 143.551 214.58 144.941C198.07 150.611 183.114 147.861 169.71 136.691C162.68 130.814 169.688 124.061 173.193 118.761C179.004 118.946 185.357 119.01 192.252 118.953C208.512 118.803 197.016 103.907 211.375 104.271C221.431 104.527 231.046 104.506 240.22 104.207C243.995 104.093 246.608 102.283 248.061 98.7783C248.446 97.8522 248.474 96.9118 248.147 95.9572C246.722 91.7257 243.781 89.6099 239.322 89.6099L159.561 89.4817C158.022 80.8263 165.244 80.3347 166.74 73.6241C168.321 66.5715 162.189 63.1521 155.95 63.0025C155.095 62.9883 153.322 63.2162 150.629 63.6864C146.313 64.4415 142.396 63.9001 138.878 62.0622C183.676 48.5839 223.703 55.6436 258.958 83.2412C271.921 93.3856 282.604 106.301 291.008 121.988Z" fill="#5088EA"/>
<path d="M107.17 78.4111C107.839 79.7504 108.601 80.7691 109.456 81.4672C115.025 93.0648 113.743 103.751 105.61 113.524C97.8608 122.828 90.1261 129.46 82.4056 133.421C71.6154 138.956 69.6283 146.543 68.5386 157.849C68.3677 159.729 67.1712 162.444 66.0387 163.662C63.8309 166.07 59.9493 169.603 54.3939 174.262C57.2286 134.326 74.8204 102.376 107.17 78.4111Z" fill="#5088EA"/>
<path d="M109.456 81.4673C116.82 88.3489 120.609 97.1183 120.823 107.776C121.186 125.706 108.772 134.02 95.5889 142.974C87.3414 148.595 84.991 168.727 84.35 178.152C84.2982 178.926 84.4523 179.703 84.7972 180.404C85.142 181.105 85.6655 181.706 86.3157 182.148C92.448 186.316 102.341 191.744 103.943 199.416C106.023 209.304 107.91 219.712 109.605 230.64C110.318 235.171 111.721 239.21 113.815 242.757C121.735 256.15 130.231 267.627 139.305 277.187C139.896 277.803 140.704 278.165 141.557 278.197C142.41 278.229 143.242 277.928 143.878 277.358C144.903 276.446 145.608 275.256 145.993 273.789C147.531 267.89 148.991 261.928 150.373 255.901C150.666 254.608 151.247 253.398 152.072 252.362C152.897 251.326 153.945 250.49 155.138 249.917L174.133 240.749C174.871 240.386 175.499 239.835 175.954 239.152C176.408 238.468 176.672 237.677 176.718 236.859C177.017 231.025 176.056 209.162 169.795 205.87C160.907 201.211 152.602 196.339 144.882 191.252C141.321 188.901 141.663 187.925 145.907 188.324C154.611 189.108 163.984 191.167 174.026 194.501C179.539 196.317 181.761 198.027 184.902 203.242C189.887 211.548 195.229 219.847 200.927 228.139C195.799 232.257 190.984 237.643 186.483 244.296C184.033 248.67 180.4 251.94 175.586 254.106C170.386 256.428 167.295 258.031 166.313 258.914C162.039 262.733 159.86 267.577 159.774 273.447C161.185 279.06 161.484 283.833 160.672 287.766C160.073 290.701 158.044 295.858 154.582 303.239C135.751 299.463 118.8 291.755 103.73 280.115C104.1 278.747 104.007 277.194 103.452 275.456C102.668 273.005 102.227 271.552 102.127 271.096C98.2953 252.118 94.2285 233.183 89.9267 214.291C89.0293 210.273 86.8927 206.02 83.6022 204.054C76.3518 199.694 69.5429 195.662 63.1756 191.958C60.6116 190.462 57.6417 187.256 54.2657 182.34L54.394 174.262C59.9493 169.603 63.8309 166.07 66.0388 163.662C67.1712 162.444 68.3677 159.729 68.5387 157.849C69.6284 146.543 71.6155 138.956 82.4056 133.421C90.1261 129.46 97.8609 122.828 105.61 113.524C113.743 103.751 115.025 93.0648 109.456 81.4673Z" fill="#2FAD4F"/>
<path d="M159.561 89.4814L239.322 89.6097C243.781 89.6097 246.722 91.7254 248.147 95.957C248.474 96.9116 248.446 97.8519 248.061 98.778C246.608 102.283 243.995 104.092 240.22 104.206C231.046 104.506 221.431 104.527 211.375 104.27C197.016 103.907 208.512 118.803 192.252 118.953C185.357 119.01 179.004 118.946 173.193 118.76C169.29 114.814 163.15 110.832 154.775 106.814C152.438 105.688 151.626 104.064 152.339 101.941C152.595 101.143 153.528 99.9321 155.138 98.3078C157.645 95.786 159.119 92.8439 159.561 89.4814Z" fill="#2F71D1"/>
<path d="M302.397 151.202C308.095 177.931 306.193 203.142 296.692 226.836C273.936 283.662 214.58 314.843 154.582 303.239C158.044 295.858 160.074 290.701 160.672 287.766C161.484 283.833 161.185 279.06 159.774 273.447L236.865 273.532C241.21 273.546 243.98 271.466 245.177 267.292C245.448 266.337 245.412 265.39 245.07 264.449C243.76 260.959 241.238 259.142 237.506 259C232.35 258.8 227.158 258.807 221.93 259.021C208.533 259.577 217.016 244.317 205.093 244.168C199.082 244.097 192.878 244.139 186.483 244.296C190.984 237.642 195.799 232.257 200.927 228.139C206.14 224.592 211.154 221.571 215.969 219.078C222.998 215.445 216.417 204.502 230.648 206.982C235.42 207.808 239.059 205.571 241.566 200.271C242.634 198.006 241.865 195.591 240.455 193.71C236.766 188.752 235.127 183.68 235.541 178.493C235.598 177.781 235.861 177.154 236.331 176.613C240.519 171.847 251.907 172.146 252.249 179.968C252.278 180.581 252.486 181.169 252.848 181.656C254.229 183.551 255.86 185.233 257.741 186.7C262.121 190.098 263.467 197.001 265.091 202.088C266.544 206.64 271.479 210.529 275.689 206.084C278.395 203.22 280.311 199.502 281.436 194.928C283.046 188.331 284.762 182.162 286.586 176.42C288.523 170.337 292.169 163.818 297.525 156.866C299.876 153.802 301.499 151.915 302.397 151.202ZM284.107 221.901C284.109 220.958 283.925 220.024 283.566 219.152C283.206 218.281 282.679 217.488 282.013 216.82C281.348 216.152 280.557 215.622 279.687 215.26C278.817 214.897 277.883 214.71 276.941 214.708L239.293 214.642C238.35 214.641 237.416 214.825 236.544 215.184C235.673 215.544 234.88 216.071 234.213 216.737C233.545 217.402 233.015 218.193 232.652 219.064C232.29 219.934 232.103 220.868 232.101 221.811L232.1 222.281C232.098 223.224 232.283 224.158 232.642 225.03C233.001 225.902 233.529 226.694 234.194 227.362C234.86 228.03 235.65 228.56 236.521 228.923C237.391 229.285 238.324 229.473 239.267 229.474L276.915 229.54C277.858 229.542 278.791 229.358 279.663 228.998C280.535 228.639 281.327 228.111 281.995 227.446C282.663 226.78 283.193 225.989 283.555 225.119C283.918 224.248 284.105 223.315 284.107 222.372L284.107 221.901Z" fill="#5088EA"/>
<path d="M54.2657 182.34C57.6417 187.256 60.6116 190.461 63.1756 191.957C69.5429 195.662 76.3518 199.694 83.6022 204.054C86.8927 206.02 89.0293 210.273 89.9267 214.291C94.2285 233.183 98.2953 252.118 102.127 271.096C102.227 271.552 102.668 273.005 103.452 275.456C104.007 277.194 104.1 278.747 103.73 280.115C72.2209 255.153 55.7329 222.561 54.2657 182.34Z" fill="#5088EA"/>
<path d="M276.941 214.708L239.293 214.642C235.328 214.635 232.108 217.845 232.101 221.811L232.1 222.281C232.093 226.247 235.302 229.467 239.267 229.474L276.915 229.54C280.88 229.547 284.1 226.337 284.107 222.372L284.107 221.901C284.114 217.936 280.906 214.715 276.941 214.708Z" fill="#2F71D1"/>
<path d="M186.483 244.296C192.879 244.14 199.082 244.097 205.093 244.168C217.016 244.318 208.533 259.577 221.93 259.021C227.158 258.808 232.35 258.8 237.506 259C241.238 259.142 243.76 260.959 245.07 264.45C245.412 265.39 245.448 266.337 245.177 267.292C243.98 271.467 241.21 273.547 236.865 273.532L159.774 273.447C159.86 267.577 162.039 262.733 166.313 258.914C167.295 258.031 170.387 256.428 175.586 254.106C180.4 251.94 184.033 248.67 186.483 244.296Z" fill="#2F71D1"/>
</g>
<defs>
<clipPath id="clip0_203_34">
<rect width="360" height="360" fill="white"/>
</clipPath>
</defs>
</svg>
