<svg width="43" height="44" viewBox="0 0 43 44" fill="none" xmlns="http://www.w3.org/2000/svg">
<path d="M21.9388 35.196C27.7547 35.196 32.4694 30.5229 32.4694 24.7584C32.4694 18.9939 27.7547 14.3208 21.9388 14.3208C16.1229 14.3208 11.4082 18.9939 11.4082 24.7584C11.4082 30.5229 16.1229 35.196 21.9388 35.196Z" fill="#FF9600"/>
<path fill-rule="evenodd" clip-rule="evenodd" d="M23.4886 9.66174L30.1615 18.2231C30.3727 18.4941 30.5036 18.8189 30.5392 19.1607C30.5748 19.5024 30.5137 19.8472 30.3629 20.1559C30.2121 20.4646 29.9776 20.7248 29.6861 20.9067C29.3947 21.0886 29.058 21.185 28.7144 21.1849H15.1641C14.8206 21.185 14.484 21.0887 14.1926 20.9069C13.9011 20.7251 13.6666 20.4651 13.5157 20.1565C13.3648 19.8479 13.3036 19.5032 13.339 19.1615C13.3745 18.8199 13.5051 18.495 13.7162 18.224L20.3891 9.66174C20.5729 9.42614 20.808 9.23556 21.0766 9.10448C21.3451 8.9734 21.64 8.90527 21.9388 8.90527C22.2376 8.90527 22.5325 8.9734 22.8011 9.10448C23.0696 9.23556 23.3047 9.42614 23.4886 9.66174Z" fill="#FF9600"/>
<path fill-rule="evenodd" clip-rule="evenodd" d="M14.4375 13.213L27.9228 21.8964C28.245 22.1039 28.4941 22.4072 28.6351 22.7636C28.7761 23.12 28.8018 23.5117 28.7088 23.8835C28.6157 24.2553 28.4086 24.5886 28.1163 24.8366C27.8241 25.0846 27.4615 25.2348 27.0795 25.2661L13.3923 26.3894C13.1398 26.4101 12.8858 26.3783 12.6462 26.296C12.4066 26.2136 12.1866 26.0826 12.0002 25.911C11.8138 25.7394 11.665 25.5311 11.5631 25.2991C11.4612 25.0671 11.4084 24.8166 11.4082 24.5632V14.8654C11.4083 14.5124 11.5035 14.1659 11.6838 13.8624C11.864 13.5589 12.1227 13.3095 12.4326 13.1404C12.7425 12.9714 13.0922 12.8889 13.445 12.9017C13.7978 12.9144 14.1406 13.022 14.4375 13.213Z" fill="#FF9600"/>
<path d="M21.9388 30.9402C24.4207 30.9402 26.4327 28.9577 26.4327 26.5121C26.4327 24.0665 24.4207 22.084 21.9388 22.084C19.4568 22.084 17.4448 24.0665 17.4448 26.5121C17.4448 28.9577 19.4568 30.9402 21.9388 30.9402Z" fill="#FFC800"/>
<path fill-rule="evenodd" clip-rule="evenodd" d="M22.6013 20.1087L25.4366 23.726C25.5277 23.8419 25.5843 23.9811 25.6 24.1276C25.6157 24.2741 25.5899 24.4222 25.5255 24.5547C25.461 24.6873 25.3606 24.799 25.2356 24.8772C25.1107 24.9553 24.9662 24.9967 24.8189 24.9967H19.0586C18.9112 24.9967 18.7668 24.9553 18.6418 24.8772C18.5169 24.799 18.4165 24.6873 18.352 24.5547C18.2876 24.4222 18.2617 24.2741 18.2774 24.1276C18.2931 23.9811 18.3497 23.8419 18.4408 23.726L21.2762 20.1087C21.355 20.0084 21.4556 19.9272 21.5704 19.8714C21.6852 19.8156 21.8111 19.7866 21.9387 19.7866C22.0664 19.7866 22.1923 19.8156 22.3071 19.8714C22.4219 19.9272 22.5225 20.0084 22.6013 20.1087Z" fill="#FFC800"/>
</svg>
