<svg width="311" height="314" viewBox="0 0 311 314" fill="none" xmlns="http://www.w3.org/2000/svg">
<path fill-rule="evenodd" clip-rule="evenodd" d="M249 40.5001C185.999 40.3334 122.999 40.5001 60 41.0001C56.956 41.363 53.956 41.863 51 42.5001C51.1107 41.8827 51.444 41.3827 52 41.0001C54 40.6668 56 40.3334 58 40.0001C121.835 39.1681 185.501 39.3347 249 40.5001Z" fill="#A5E0B0"/>
<path fill-rule="evenodd" clip-rule="evenodd" d="M249 40.5C250.792 40.366 252.458 40.6993 254 41.5C256.157 42.4067 258.49 43.0733 261 43.5C272.41 49.1652 280.41 57.8319 285 69.5C284.759 71.8984 285.426 73.8984 287 75.5C287 75.8333 287 76.1667 287 76.5C287.312 119.524 286.978 162.524 286 205.5C283.59 217.563 277.257 226.896 267 233.5C264.183 234.095 261.85 235.428 260 237.5C256.118 238.803 252.118 239.47 248 239.5C220.998 239.333 193.998 239.5 167 240C165.744 240.417 165.077 241.25 165 242.5C164.333 242.833 163.667 243.167 163 243.5C160.746 244.124 159.079 245.457 158 247.5C152.719 250.78 147.719 254.447 143 258.5C140.746 259.124 139.079 260.457 138 262.5C132.719 265.78 127.719 269.447 123 273.5C120.746 274.124 119.079 275.457 118 277.5C110.546 282.447 103.213 287.614 96 293C86.2924 294.813 79.2924 291.313 75 282.5C74.0178 268.245 73.6844 253.912 74 239.5C68.3333 239.5 62.6667 239.5 57 239.5C38.5794 235.748 26.9127 224.748 22 206.5C21.0001 162.838 20.6667 119.172 21 75.5C22.2949 73.0209 23.2949 70.3542 24 67.5C24.2959 65.597 24.9625 63.9303 26 62.5C27.4063 62.0269 28.073 61.0269 28 59.5C31.4569 54.2088 35.7902 49.7088 41 46C44.2556 44.5263 47.589 43.3597 51 42.5C53.956 41.8629 56.956 41.3629 60 41C122.999 40.5 185.999 40.3333 249 40.5Z" fill="#42BF59"/>
<path fill-rule="evenodd" clip-rule="evenodd" d="M254 41.4999C256.027 41.3378 258.027 41.5044 260 41.9999C260.556 42.3825 260.889 42.8825 261 43.4999C258.49 43.0732 256.157 42.4066 254 41.4999Z" fill="#C5EACC"/>
<path fill-rule="evenodd" clip-rule="evenodd" d="M249 60.5001C249 60.8334 249 61.1668 249 61.5001C184.292 61.1739 119.625 61.5073 55 62.5001C55.7297 60.9551 57.063 60.1217 59 60.0001C122.404 59.1708 185.737 59.3375 249 60.5001Z" fill="#C7ECCD"/>
<path fill-rule="evenodd" clip-rule="evenodd" d="M249 61.5C249 61.1667 249 60.8333 249 60.5C251.398 60.2594 253.398 60.9261 255 62.5C252.935 62.4828 250.935 62.1495 249 61.5Z" fill="#89D796"/>
<path fill-rule="evenodd" clip-rule="evenodd" d="M28 59.5C28.073 61.0269 27.4063 62.0269 26 62.5C25.927 60.9731 26.5937 59.9731 28 59.5Z" fill="#A3E0AD"/>
<path fill-rule="evenodd" clip-rule="evenodd" d="M249 61.4999C250.935 62.1494 252.935 62.4827 255 62.4999C257.312 64.6359 259.812 66.6359 262.5 68.4999C263.441 70.7273 264.608 72.7273 266 74.4999C266 117.167 266 159.833 266 202.5C263.848 212.242 257.848 217.909 248 219.5C218.998 219.333 189.998 219.5 161 220C159.558 220.377 158.558 221.21 158 222.5C148.154 229.591 138.487 236.924 129 244.5C125.186 246.913 121.519 249.579 118 252.5C109.742 257.593 101.909 263.26 94.4999 269.5C94.1666 255.167 93.8332 240.833 93.4999 226.5C92.4749 224.313 90.9749 222.646 88.9999 221.5C88.2374 220.732 87.2374 220.232 85.9999 220C77.3396 219.5 68.673 219.334 59.9999 219.5C55.0543 219.197 51.0543 217.197 47.9999 213.5C47.3332 212.167 46.3332 211.167 44.9999 210.5C43.986 208.426 42.986 206.426 41.9999 204.5C41.9999 203.167 41.9999 201.833 41.9999 200.5C41.6777 158.457 42.011 116.457 42.9999 74.4999C44.6666 68.1666 48.6666 64.1666 54.9999 62.4999C119.625 61.5071 184.292 61.1737 249 61.4999Z" fill="#FDFEFD"/>
<path fill-rule="evenodd" clip-rule="evenodd" d="M23.9999 67.5C23.2948 70.3542 22.2948 73.0209 20.9999 75.5C20.8071 72.1889 21.8071 69.5223 23.9999 67.5Z" fill="#BEE8C5"/>
<path fill-rule="evenodd" clip-rule="evenodd" d="M285 69.5C286.574 71.1016 287.241 73.1016 287 75.5C285.426 73.8984 284.759 71.8984 285 69.5Z" fill="#A8E0B1"/>
<path fill-rule="evenodd" clip-rule="evenodd" d="M41.0001 78.5C40.6682 119.337 41.0015 160.003 42.0001 200.5C42.0001 201.833 42.0001 203.167 42.0001 204.5C41.2322 203.737 40.7322 202.737 40.5001 201.5C39.6688 160.331 39.8355 119.331 41.0001 78.5Z" fill="#97DCA4"/>
<path fill-rule="evenodd" clip-rule="evenodd" d="M214 107.5C173.291 107.178 132.624 107.511 92 108.5C92.1107 107.883 92.444 107.383 93 107C133.502 106.169 173.835 106.335 214 107.5Z" fill="#9ADDA6"/>
<path fill-rule="evenodd" clip-rule="evenodd" d="M214 107.5C217 108.5 219 110.5 220 113.5C220.236 116.609 219.903 119.609 219 122.5C218.064 123.974 216.73 124.974 215 125.5C173.624 125.822 132.291 125.489 91 124.5C89.2497 123.341 88.2497 121.674 88 119.5C87.7011 117.396 88.0344 115.396 89 113.5C90.4524 112.06 91.4524 110.394 92 108.5C132.624 107.511 173.291 107.178 214 107.5Z" fill="#40BF57"/>
<path fill-rule="evenodd" clip-rule="evenodd" d="M91.9999 108.5C91.4523 110.394 90.4523 112.06 88.9999 113.5C88.0343 115.396 87.701 117.396 87.9999 119.5C85.8919 114.696 87.2252 111.029 91.9999 108.5Z" fill="#75D083"/>
<path fill-rule="evenodd" clip-rule="evenodd" d="M220 113.5C221.38 113.962 222.047 114.962 222 116.5C221.878 119.126 220.878 121.126 219 122.5C219.903 119.609 220.236 116.609 220 113.5Z" fill="#C8EBCE"/>
<path fill-rule="evenodd" clip-rule="evenodd" d="M91 124.5C132.291 125.489 173.624 125.822 215 125.5C214.889 126.117 214.556 126.617 214 127C174 127.667 134 127.667 94 127C92.5577 126.623 91.5577 125.79 91 124.5Z" fill="#7AD188"/>
<path fill-rule="evenodd" clip-rule="evenodd" d="M42.9999 74.5C42.011 116.457 41.6777 158.457 41.9999 200.5C41.0013 160.003 40.668 119.337 40.9999 78.5C40.6567 76.5168 41.3234 75.1834 42.9999 74.5Z" fill="#DEF4E1"/>
<path fill-rule="evenodd" clip-rule="evenodd" d="M266 74.5C266.79 75.6085 267.29 76.9419 267.5 78.5C268.167 118.833 268.167 159.167 267.5 199.5C267.268 200.737 266.768 201.737 266 202.5C266 159.833 266 117.167 266 74.5Z" fill="#C7ECCD"/>
<path fill-rule="evenodd" clip-rule="evenodd" d="M287 76.5C288.165 118.331 288.331 160.331 287.5 202.5C287.268 203.737 286.768 204.737 286 205.5C286.978 162.524 287.312 119.524 287 76.5Z" fill="#A5E0B0"/>
<path fill-rule="evenodd" clip-rule="evenodd" d="M93 153.5C125.164 152.336 157.497 152.169 190 153C189.444 153.383 189.111 153.883 189 154.5C157.073 153.508 125.073 153.174 93 153.5Z" fill="#E7F3E9"/>
<path fill-rule="evenodd" clip-rule="evenodd" d="M93 153.5C125.073 153.174 157.073 153.508 189 154.5C189 154.833 189 155.167 189 155.5C158.363 154.356 127.696 154.19 97 155C95.3333 155.333 93.6667 155.667 92 156C91.1032 158.311 89.7699 160.144 88 161.5C88 161.167 88 160.833 88 160.5C88.9461 157.591 90.6128 155.258 93 153.5Z" fill="#58C76B"/>
<path fill-rule="evenodd" clip-rule="evenodd" d="M189 155.5C193.945 158.544 195.278 162.877 193 168.5C191.648 169.524 190.315 170.524 189 171.5C156.34 172.826 123.673 172.826 91.0001 171.5C88.3575 168.766 87.3575 165.433 88.0001 161.5C89.77 160.144 91.1033 158.311 92.0001 156C93.6668 155.667 95.3334 155.333 97.0001 155C127.696 154.19 158.363 154.356 189 155.5Z" fill="#40BF57"/>
<path fill-rule="evenodd" clip-rule="evenodd" d="M88.0001 160.5C88.0001 160.833 88.0001 161.167 88.0001 161.5C87.3575 165.433 88.3575 168.766 91.0001 171.5C89.4827 171.489 88.316 170.823 87.5001 169.5C86.6956 166.304 86.8623 163.304 88.0001 160.5Z" fill="#C7ECCD"/>
<path fill-rule="evenodd" clip-rule="evenodd" d="M91 171.5C123.673 172.826 156.34 172.826 189 171.5C189 171.833 189 172.167 189 172.5C157.044 173.485 125.044 173.819 93 173.5C92.3333 172.833 91.6667 172.167 91 171.5Z" fill="#58C76B"/>
<path fill-rule="evenodd" clip-rule="evenodd" d="M189 172.5C188.889 173.117 188.556 173.617 188 174C156.164 174.831 124.497 174.664 93 173.5C125.044 173.819 157.044 173.485 189 172.5Z" fill="#EBF7ED"/>
<path fill-rule="evenodd" clip-rule="evenodd" d="M45 210.5C46.3333 211.167 47.3333 212.167 48 213.5C46 213.5 45 212.5 45 210.5Z" fill="#92DA9E"/>
<path fill-rule="evenodd" clip-rule="evenodd" d="M60 219.5C68.6731 219.334 77.3397 219.5 86 220C87.2375 220.232 88.2375 220.732 89 221.5C78.9422 222.14 69.2755 221.473 60 219.5Z" fill="#7BD289"/>
<path fill-rule="evenodd" clip-rule="evenodd" d="M248 219.5C247.582 220.222 246.916 220.722 246 221C216.625 221.182 187.291 221.682 158 222.5C158.558 221.21 159.558 220.377 161 220C189.998 219.5 218.998 219.333 248 219.5Z" fill="#79D187"/>
<path fill-rule="evenodd" clip-rule="evenodd" d="M267 233.5C265.454 235.931 263.121 237.264 260 237.5C261.85 235.428 264.183 234.095 267 233.5Z" fill="#C0E9C7"/>
<path fill-rule="evenodd" clip-rule="evenodd" d="M248 239.5C247.889 240.117 247.556 240.617 247 241C219.624 241.184 192.291 241.684 165 242.5C165.077 241.25 165.744 240.417 167 240C193.998 239.5 220.998 239.333 248 239.5Z" fill="#C8ECCD"/>
<path fill-rule="evenodd" clip-rule="evenodd" d="M163 243.5C161.961 245.531 160.295 246.864 158 247.5C159.079 245.457 160.746 244.124 163 243.5Z" fill="#C5EBCB"/>
<path fill-rule="evenodd" clip-rule="evenodd" d="M57 239.5C62.6667 239.5 68.3333 239.5 74 239.5C73.6844 253.912 74.0178 268.245 75 282.5C73.0181 269.208 72.3514 255.541 73 241.5C68.3215 241.666 63.6548 241.499 59 241C58.0842 240.722 57.4175 240.222 57 239.5Z" fill="#D9F0DC"/>
<path fill-rule="evenodd" clip-rule="evenodd" d="M129 244.5C127.221 245.67 126.221 247.336 126 249.5C123.094 249.957 120.428 250.957 118 252.5C121.519 249.579 125.186 246.913 129 244.5Z" fill="#72CF81"/>
<path fill-rule="evenodd" clip-rule="evenodd" d="M143 258.5C141.961 260.531 140.295 261.864 138 262.5C139.079 260.457 140.746 259.124 143 258.5Z" fill="#C5EACB"/>
<path fill-rule="evenodd" clip-rule="evenodd" d="M123 273.5C121.961 275.531 120.295 276.864 118 277.5C119.079 275.457 120.746 274.124 123 273.5Z" fill="#C7ECCD"/>
</svg>
