<svg width="43" height="43" viewBox="0 0 43 43" fill="none" xmlns="http://www.w3.org/2000/svg">
<g clip-path="url(#clip0_1_2638)">
<path fill-rule="evenodd" clip-rule="evenodd" d="M8.95858 13.0743L12.8828 16.1727C13.1602 16.3917 13.5601 16.3572 13.7958 16.0939L19.6955 9.50561C20.6814 8.40461 22.3732 8.31132 23.4742 9.29725C23.5252 9.34286 23.5744 9.39042 23.6217 9.43981L30.008 16.1077C30.2527 16.3632 30.6539 16.384 30.9237 16.1554L34.5592 13.0743C35.2852 12.459 36.3726 12.5487 36.9879 13.2748C37.3484 13.7002 37.4808 14.2738 37.3431 14.8142L32.9681 31.9874C32.7298 32.923 31.8872 33.5778 30.9217 33.5778H12.2941C11.3286 33.5778 10.4861 32.923 10.2477 31.9874L5.93042 15.0408C5.67055 14.0207 6.28682 12.9831 7.3069 12.7232C7.8821 12.5767 8.49272 12.7064 8.95858 13.0743Z" fill="#FFC800"/>
<path fill-rule="evenodd" clip-rule="evenodd" d="M11.3854 17.4051L12.6299 18.5429C13.0602 18.9364 13.7281 18.9065 14.1216 18.4761C14.1381 18.458 14.154 18.4394 14.1693 18.4202L17.2661 14.5197C17.7256 13.941 18.5673 13.8444 19.146 14.3039C19.4384 14.536 19.6206 14.8799 19.6483 15.2523L20.7461 29.9768C20.8011 30.7137 20.2482 31.3557 19.5113 31.4106C19.4782 31.4131 19.445 31.4143 19.4118 31.4143H14.2224C13.6051 31.4143 13.068 30.992 12.9222 30.3921L9.97077 18.2421C9.85876 17.781 10.1418 17.3163 10.6029 17.2043C10.8809 17.1368 11.1743 17.2121 11.3854 17.4051Z" fill="#FFDE00"/>
</g>
<defs>
<clipPath id="clip0_1_2638">
<rect width="32.25" height="29.4457" fill="white" transform="translate(5.375 6.77734)"/>
</clipPath>
</defs>
</svg>
