<svg width="43" height="44" viewBox="0 0 43 44" fill="none" xmlns="http://www.w3.org/2000/svg">
<path fill-rule="evenodd" clip-rule="evenodd" d="M10.479 20.8055C10.479 14.5907 15.517 9.55273 21.7317 9.55273C27.9464 9.55273 32.9844 14.5907 32.9844 20.8055V21.1465C35.0157 22.1384 36.415 24.2244 36.415 26.6372C36.415 30.0097 33.6809 32.7438 30.3084 32.7438H13.0177C9.64505 32.7438 6.91101 30.0097 6.91101 26.6372C6.91101 24.1703 8.37367 22.0451 10.479 21.0815V20.8055Z" fill="#9069CD"/>
<path fill-rule="evenodd" clip-rule="evenodd" d="M13.0281 26.3667C11.4131 26.0485 10.1949 24.6246 10.1949 22.9162C10.1949 21.1784 11.4554 19.735 13.112 19.4503C13.756 15.4341 17.2372 12.3657 21.435 12.3657C25.6328 12.3657 29.114 15.4341 29.7579 19.4505C31.4141 19.7355 32.6742 21.1787 32.6742 22.9162C32.6742 24.6243 31.4565 26.048 29.8418 26.3665C29.5214 30.7297 25.8799 34.1701 21.435 34.1701C16.99 34.1701 13.3486 30.7298 13.0281 26.3667Z" fill="#F3AD6D"/>
<path fill-rule="evenodd" clip-rule="evenodd" d="M18.5745 20.1875C18.5745 19.619 19.0353 19.1582 19.6037 19.1582C20.1721 19.1582 20.6329 19.619 20.6329 20.1875V22.932C20.6329 23.5004 20.1721 23.9612 19.6037 23.9612C19.0353 23.9612 18.5745 23.5004 18.5745 22.932V20.1875Z" fill="#BF8034"/>
<path fill-rule="evenodd" clip-rule="evenodd" d="M22.1426 20.1875C22.1426 19.619 22.6034 19.1582 23.1718 19.1582C23.7402 19.1582 24.201 19.619 24.201 20.1875V22.932C24.201 23.5004 23.7402 23.9612 23.1718 23.9612C22.6034 23.9612 22.1426 23.5004 22.1426 22.932V20.1875Z" fill="#BF8034"/>
<path d="M18.5743 25.5088H24.3528C24.7106 25.5088 25.0007 25.7988 25.0007 26.1567V26.4927C25.0007 28.4462 23.4171 30.0298 21.4636 30.0298C19.5101 30.0298 17.9264 28.4462 17.9264 26.4927V26.1567C17.9264 25.7988 18.2165 25.5088 18.5743 25.5088Z" fill="white"/>
<path fill-rule="evenodd" clip-rule="evenodd" d="M24.0788 12.1464L24.5621 12.7181V14.6522L22.0594 17.246L18.5468 19.0922L14.6393 19.7516H12.4003V18.5648L13.6735 15.949L15.4297 13.6852L19.2494 11.7949H22.5423L24.0788 12.1464Z" fill="#9069CD"/>
<path d="M10.8348 20.1186H13.7694C17.4072 20.0938 23.1972 19.5766 25.0836 12.9191C25.1801 12.5283 25.2729 12.0764 25.362 11.5635" stroke="#9069CD" stroke-width="1.85712"/>
</svg>
