<svg width="312" height="307" viewBox="0 0 312 307" fill="none" xmlns="http://www.w3.org/2000/svg">
<path fill-rule="evenodd" clip-rule="evenodd" d="M239 45.5C226.656 42.9983 214.323 42.9983 202 45.5C203 44.8333 204 44.1667 205 43.5C216.015 42.1116 227.015 42.2783 238 44C238.556 44.3826 238.889 44.8826 239 45.5Z" fill="#6CCD7C"/>
<path fill-rule="evenodd" clip-rule="evenodd" d="M105 43.4999C105 43.8332 105 44.1666 105 44.4999C94 43.1666 83 43.1666 72 44.4999C82.7919 42.2085 93.7919 41.8751 105 43.4999Z" fill="#78D187"/>
<path fill-rule="evenodd" clip-rule="evenodd" d="M105 44.5C106.935 45.1495 108.935 45.4828 111 45.5C113.612 46.3705 116.279 47.0372 119 47.5C121.553 49.5837 124.553 50.917 128 51.5C129.171 52.3446 130.505 53.0113 132 53.5C132.473 54.9063 133.473 55.573 135 55.5C141.912 60.3994 148.579 65.7328 155 71.5C167.09 59.0665 181.424 50.3999 198 45.5C199.333 45.5 200.667 45.5 202 45.5C214.323 42.9983 226.656 42.9983 239 45.5C242.723 46.2967 246.39 47.2967 250 48.5C250.473 49.9063 251.473 50.573 253 50.5C271.736 59.9041 284.403 74.5708 291 94.5C291.296 96.403 291.963 98.0697 293 99.5C293.973 101.948 294.306 104.615 294 107.5C293.988 117.291 292.988 126.958 291 136.5C289.49 141.855 287.157 146.855 284 151.5C282.594 151.973 281.927 152.973 282 154.5C258.057 179.778 233.724 204.778 209 229.5C205.333 232.5 202 235.833 199 239.5C196.333 241.5 194 243.833 192 246.5C179.667 258.167 167.667 270.167 156 282.5C115.385 243.39 74.8855 203.39 34.5 162.5C30.3491 156.885 26.5158 151.219 23 145.5C23.073 143.973 22.4063 142.973 21 142.5C20.5293 140.421 19.8627 138.421 19 136.5C18.7041 134.597 18.0375 132.93 17 131.5C15.5437 125.606 14.877 119.606 15 113.5C16.6357 109.79 17.3023 105.79 17 101.5C17 100.833 17 100.167 17 99.5C18.2949 97.0209 19.2949 94.3542 20 91.5C23.4444 81.2843 28.9444 72.2843 36.5 64.5C42.3333 60 48.1667 55.5 54 51C57.24 49.6001 60.5733 48.4334 64 47.5C66.8542 46.7949 69.5209 45.7949 72 44.5C83 43.1667 94 43.1667 105 44.5Z" fill="#43C059"/>
<path fill-rule="evenodd" clip-rule="evenodd" d="M105 44.5C105 44.1667 105 43.8333 105 43.5C107.398 43.2594 109.398 43.9261 111 45.5C108.935 45.4828 106.935 45.1495 105 44.5Z" fill="#A2E0AC"/>
<path fill-rule="evenodd" clip-rule="evenodd" d="M205 43.5001C204 44.1668 203 44.8334 202 45.5001C200.667 45.5001 199.333 45.5001 198 45.5001C200.015 44.0763 202.348 43.4096 205 43.5001Z" fill="#9ADDA6"/>
<path fill-rule="evenodd" clip-rule="evenodd" d="M72 44.4999C69.5209 45.7948 66.8542 46.7948 64 47.4999C66.0223 45.3071 68.6889 44.3071 72 44.4999Z" fill="#C1E9C8"/>
<path fill-rule="evenodd" clip-rule="evenodd" d="M119 47.5C122.447 48.083 125.447 49.4163 128 51.5C124.553 50.917 121.553 49.5837 119 47.5Z" fill="#A6E0AF"/>
<path fill-rule="evenodd" clip-rule="evenodd" d="M250 48.5C251.527 48.427 252.527 49.0937 253 50.5C251.473 50.573 250.473 49.9063 250 48.5Z" fill="#A6E1B0"/>
<path fill-rule="evenodd" clip-rule="evenodd" d="M132 53.5C133.527 53.427 134.527 54.0937 135 55.5C133.473 55.573 132.473 54.9063 132 53.5Z" fill="#B3E4BB"/>
<path fill-rule="evenodd" clip-rule="evenodd" d="M97 63.4999C88.919 63.3151 80.919 63.9818 73 65.4999C75.3109 63.9317 77.9776 63.0983 81 62.9999C86.5164 62.1825 91.8497 62.3492 97 63.4999Z" fill="#CCEDD1"/>
<path fill-rule="evenodd" clip-rule="evenodd" d="M97 63.5001C118.871 68.6021 137.204 79.602 152 96.5C152.212 98.3841 153.212 99.7174 155 100.5C157.438 99.0692 159.104 97.0693 160 94.5001C166.321 86.8425 173.654 80.3425 182 75.0001C187.852 71.074 194.185 68.2406 201 66.5001C209.52 64.3786 218.187 63.3786 227 63.5001C230.127 64.5809 233.46 65.2475 237 65.5001C254.264 71.4305 265.931 83.0971 272 100.5C271.759 102.898 272.426 104.898 274 106.5C275.347 113.176 275.18 119.843 273.5 126.5C269.678 134.144 265.345 141.478 260.5 148.5C225.847 184.319 190.681 219.653 155 254.5C120.014 220.014 85.1804 185.347 50.5 150.5C41.3673 140.401 36.2006 128.568 35 115C35.1055 112.116 35.4388 109.282 36 106.5C37.5739 104.898 38.2406 102.898 38 100.5C38.2959 98.597 38.9625 96.9303 40 95.5C42.2705 93.3877 43.6039 90.7211 44 87.5001C44 86.8334 44.3333 86.5001 45 86.5001C47.0869 85.4155 48.4202 83.7489 49 81.5001C52.0425 77.4565 55.7092 74.1232 60 71.5001C63.221 71.104 65.8877 69.7706 68 67.5001C69.5495 66.5593 71.2162 65.8926 73 65.5001C80.919 63.982 88.919 63.3153 97 63.5001Z" fill="#FDFDFD"/>
<path fill-rule="evenodd" clip-rule="evenodd" d="M227 63.5C218.187 63.3785 209.52 64.3785 201 66.5C201.111 65.8826 201.444 65.3826 202 65C210.387 62.6063 218.72 62.1063 227 63.5Z" fill="#CFEED4"/>
<path fill-rule="evenodd" clip-rule="evenodd" d="M227 63.5C230.66 63.1588 233.993 63.8255 237 65.5C233.46 65.2474 230.127 64.5808 227 63.5Z" fill="#BDE8C5"/>
<path fill-rule="evenodd" clip-rule="evenodd" d="M68 67.5C65.8877 69.7705 63.221 71.1039 60 71.5C62.1123 69.2295 64.779 67.8961 68 67.5Z" fill="#C9ECCE"/>
<path fill-rule="evenodd" clip-rule="evenodd" d="M49 81.5C48.4202 83.7488 47.0869 85.4154 45 86.5C45.5798 84.2512 46.9131 82.5846 49 81.5Z" fill="#C4EBCA"/>
<path fill-rule="evenodd" clip-rule="evenodd" d="M44 87.5C43.6039 90.721 42.2705 93.3877 40 95.5C40.3961 92.279 41.7295 89.6123 44 87.5Z" fill="#C4EACA"/>
<path fill-rule="evenodd" clip-rule="evenodd" d="M19.9999 91.5C19.2948 94.3542 18.2948 97.0209 16.9999 99.5C16.8071 96.1889 17.8071 93.5223 19.9999 91.5Z" fill="#BBE8C2"/>
<path fill-rule="evenodd" clip-rule="evenodd" d="M291 94.5C292.713 95.6354 293.38 97.302 293 99.5C291.963 98.0697 291.296 96.403 291 94.5Z" fill="#B3E5BC"/>
<path fill-rule="evenodd" clip-rule="evenodd" d="M160 94.5C159.104 97.0692 157.438 99.0692 155 100.5C153.212 99.7174 152.212 98.3841 152 96.5C152.982 97.1408 153.982 97.8075 155 98.5C156.686 97.1431 158.352 95.8098 160 94.5Z" fill="#B9E7C1"/>
<path fill-rule="evenodd" clip-rule="evenodd" d="M38 100.5C38.2406 102.898 37.5739 104.898 36 106.5C35.7594 104.102 36.4261 102.102 38 100.5Z" fill="#B2E5BB"/>
<path fill-rule="evenodd" clip-rule="evenodd" d="M272 100.5C273.574 102.102 274.241 104.102 274 106.5C272.426 104.898 271.759 102.898 272 100.5Z" fill="#B1E4B9"/>
<path fill-rule="evenodd" clip-rule="evenodd" d="M16.9999 101.5C17.3022 105.79 16.6356 109.79 14.9999 113.5C14.6976 109.21 15.3642 105.21 16.9999 101.5Z" fill="#7CD28A"/>
<path fill-rule="evenodd" clip-rule="evenodd" d="M294 107.5C295.339 116.763 294.839 126.097 292.5 135.5C292.117 136.056 291.617 136.389 291 136.5C292.988 126.958 293.988 117.291 294 107.5Z" fill="#6FCE7E"/>
<path fill-rule="evenodd" clip-rule="evenodd" d="M16.9999 131.5C18.0374 132.93 18.704 134.597 18.9999 136.5C17.2867 135.365 16.62 133.698 16.9999 131.5Z" fill="#B3E5BB"/>
<path fill-rule="evenodd" clip-rule="evenodd" d="M21 142.5C22.4063 142.973 23.073 143.973 23 145.5C21.5937 145.027 20.927 144.027 21 142.5Z" fill="#A8E2B2"/>
<path fill-rule="evenodd" clip-rule="evenodd" d="M284 151.5C284.073 153.027 283.406 154.027 282 154.5C281.927 152.973 282.594 151.973 284 151.5Z" fill="#AEE4B7"/>
<path fill-rule="evenodd" clip-rule="evenodd" d="M209 229.5C206.667 233.833 203.333 237.167 199 239.5C202 235.833 205.333 232.5 209 229.5Z" fill="#D5F0DA"/>
<path fill-rule="evenodd" clip-rule="evenodd" d="M192 246.5C181.256 258.747 169.923 270.58 158 282C157.406 282.464 156.739 282.631 156 282.5C167.667 270.167 179.667 258.167 192 246.5Z" fill="#D1EFD6"/>
</svg>
