<svg width="298" height="273" viewBox="0 0 298 273" fill="none" xmlns="http://www.w3.org/2000/svg">
<path fill-rule="evenodd" clip-rule="evenodd" d="M281.5 55.5C193.195 54.3411 104.861 54.1745 16.5 55C14.8455 55.6077 13.1789 56.1077 11.5 56.5C12.0577 55.2101 13.0577 54.3768 14.5 54C102.833 53.3333 191.167 53.3333 279.5 54C280.416 54.2784 281.082 54.7784 281.5 55.5Z" fill="#4FC464"/>
<path fill-rule="evenodd" clip-rule="evenodd" d="M281.5 55.5C282.5 56.1667 283.5 56.8333 284.5 57.5C285.62 61.5282 285.62 65.5282 284.5 69.5C283.094 69.9731 282.427 70.9731 282.5 72.5C282.167 72.5 281.833 72.5 281.5 72.5C192.855 73.4897 104.189 73.8231 15.4998 73.5C13.2252 72.8888 11.5586 71.5554 10.4998 69.5C9.67562 66.2356 9.34228 62.9023 9.49985 59.5C10.9061 59.0269 11.5728 58.0269 11.4998 56.5C13.1787 56.1077 14.8453 55.6077 16.4998 55C104.861 54.1745 193.195 54.3411 281.5 55.5Z" fill="#3FC056"/>
<path fill-rule="evenodd" clip-rule="evenodd" d="M11.5 56.5C11.573 58.0269 10.9063 59.0269 9.50003 59.5C9.42705 57.9731 10.0937 56.9731 11.5 56.5Z" fill="#9CDDA6"/>
<path fill-rule="evenodd" clip-rule="evenodd" d="M284.5 57.5C285.997 59.2897 286.664 61.4563 286.5 64C286.333 65.5 286.167 67 286 68.5C285.617 69.056 285.117 69.3893 284.5 69.5C285.62 65.5282 285.62 61.5282 284.5 57.5Z" fill="#8ED89A"/>
<path fill-rule="evenodd" clip-rule="evenodd" d="M9.49983 59.5C9.34226 62.9023 9.6756 66.2356 10.4998 69.5C9.88241 69.3893 9.38241 69.056 8.99983 68.5C8.19532 65.3035 8.36199 62.3035 9.49983 59.5Z" fill="#9BDDA6"/>
<path fill-rule="evenodd" clip-rule="evenodd" d="M284.5 69.5C284.573 71.0269 283.906 72.0269 282.5 72.5C282.427 70.9731 283.094 69.9731 284.5 69.5Z" fill="#AEE4B6"/>
<path fill-rule="evenodd" clip-rule="evenodd" d="M281.5 72.5C280.737 73.2679 279.737 73.7679 278.5 74C190.666 74.8324 102.999 74.6657 15.5 73.5C104.189 73.8231 192.855 73.4897 281.5 72.5Z" fill="#61CA74"/>
<path fill-rule="evenodd" clip-rule="evenodd" d="M282.5 130.5C193.861 129.341 105.195 129.174 16.5 130C14.8455 130.608 13.1789 131.108 11.5 131.5C12.4525 129.39 14.1192 128.223 16.5 128C103.5 127.333 190.5 127.333 277.5 128C279.491 128.374 281.158 129.207 282.5 130.5Z" fill="#63CA73"/>
<path fill-rule="evenodd" clip-rule="evenodd" d="M282.5 130.5C284.278 134.565 284.945 138.899 284.5 143.5C283.5 144.833 282.5 146.167 281.5 147.5C281.167 147.5 280.833 147.5 280.5 147.5C191.145 147.823 101.811 147.49 12.4999 146.5C11.8332 145.5 11.1666 144.5 10.4999 143.5C10.3069 139.434 10.6402 135.434 11.4999 131.5C13.1788 131.108 14.8454 130.608 16.4999 130C105.195 129.174 193.861 129.341 282.5 130.5Z" fill="#3FC056"/>
<path fill-rule="evenodd" clip-rule="evenodd" d="M11.5002 131.5C10.6405 135.434 10.3072 139.434 10.5002 143.5C8.57285 140.863 8.07285 137.863 9.00024 134.5C9.37699 133.058 10.2103 132.058 11.5002 131.5Z" fill="#6FCE7D"/>
<path fill-rule="evenodd" clip-rule="evenodd" d="M282.5 130.5C286.171 133.249 287.337 136.916 286 141.5C285.722 142.416 285.222 143.082 284.5 143.5C284.945 138.899 284.278 134.565 282.5 130.5Z" fill="#6CCD7B"/>
<path fill-rule="evenodd" clip-rule="evenodd" d="M12.5 146.5C101.811 147.49 191.145 147.823 280.5 147.5C279.737 148.268 278.737 148.768 277.5 149C190.501 149.5 103.501 149.667 16.5 149.5C15.1667 148.5 13.8333 147.5 12.5 146.5Z" fill="#63CA73"/>
<path fill-rule="evenodd" clip-rule="evenodd" d="M280.5 147.5C280.833 147.5 281.167 147.5 281.5 147.5C281.119 148.931 280.119 149.764 278.5 150C190.999 150.832 103.666 150.666 16.5 149.5C103.501 149.667 190.501 149.5 277.5 149C278.737 148.768 279.737 148.268 280.5 147.5Z" fill="#DFF4E3"/>
<path fill-rule="evenodd" clip-rule="evenodd" d="M278.5 202.5C190.763 202.169 103.096 202.503 15.5 203.5C58.9949 202.167 102.828 201.5 147 201.5C191.001 201.5 234.835 201.833 278.5 202.5Z" fill="#CDECD3"/>
<path fill-rule="evenodd" clip-rule="evenodd" d="M278.5 202.5C281.06 203.385 283.06 205.051 284.5 207.5C285.833 211.167 285.833 214.833 284.5 218.5C283.421 220.543 281.754 221.876 279.5 222.5C190.478 222.823 101.478 222.49 12.4999 221.5C11.0749 220.078 10.0749 218.411 9.49987 216.5C9.36759 213.43 9.70092 210.43 10.4999 207.5C11.5845 205.413 13.2511 204.08 15.4999 203.5C103.096 202.503 190.763 202.169 278.5 202.5Z" fill="#41C057"/>
<path fill-rule="evenodd" clip-rule="evenodd" d="M10.5 207.5C9.70106 210.43 9.36773 213.43 9.50001 216.5C8.36595 214.034 8.19928 211.367 9.00001 208.5C9.38259 207.944 9.88259 207.611 10.5 207.5Z" fill="#8FD99C"/>
<path fill-rule="evenodd" clip-rule="evenodd" d="M284.5 207.5C285.117 207.611 285.617 207.944 286 208.5C286.667 211.5 286.667 214.5 286 217.5C285.617 218.056 285.117 218.389 284.5 218.5C285.833 214.833 285.833 211.167 284.5 207.5Z" fill="#90D99D"/>
<path fill-rule="evenodd" clip-rule="evenodd" d="M12.5 221.5C101.478 222.49 190.478 222.823 279.5 222.5C279.158 223.338 278.492 223.672 277.5 223.5C190.833 223.5 104.167 223.5 17.5 223.5C15.4471 223.598 13.7804 222.931 12.5 221.5Z" fill="#4FC463"/>
<path fill-rule="evenodd" clip-rule="evenodd" d="M17.5 223.5C104.167 223.5 190.833 223.5 277.5 223.5C234.505 224.833 191.172 225.5 147.5 225.5C103.828 225.5 60.4948 224.833 17.5 223.5Z" fill="#DFF4E2"/>
</svg>
