<svg width="311" height="308" viewBox="0 0 311 308" fill="none" xmlns="http://www.w3.org/2000/svg">
<path fill-rule="evenodd" clip-rule="evenodd" d="M171.5 25.5001C174.974 26.525 178.64 27.1917 182.5 27.5001C185.167 28.1668 187.833 28.8334 190.5 29.5001C192.102 31.074 194.102 31.7407 196.5 31.5001C198.302 32.4583 200.302 33.125 202.5 33.5001C204.033 35.2452 206.033 36.2452 208.5 36.5001C230.876 47.382 249.042 63.0486 263 83.5001C266.631 89.0974 269.465 95.0974 271.5 101.5C271.514 105.251 272.847 108.251 275.5 110.5C275.5 110.833 275.5 111.167 275.5 111.5C275.796 113.403 276.463 115.07 277.5 116.5C279.194 122.971 280.528 129.637 281.5 136.5C281.661 149.518 281.327 162.518 280.5 175.5C279.515 179.076 278.848 182.742 278.5 186.5C276.824 187.183 276.157 188.517 276.5 190.5C275.542 192.302 274.875 194.302 274.5 196.5C274.167 197.833 273.833 199.167 273.5 200.5C271.755 202.033 270.755 204.033 270.5 206.5C268.176 210.828 265.843 215.161 263.5 219.5C261.75 220.659 260.75 222.326 260.5 224.5C254.623 232.847 247.789 240.513 240 247.5C239.64 245.392 238.973 243.392 238 241.5C233.833 237.333 229.667 233.167 225.5 229C220.569 225.87 215.569 223.037 210.5 220.5C210.027 219.094 209.027 218.427 207.5 218.5C205.421 218.029 203.421 217.363 201.5 216.5C199.967 214.755 197.967 213.755 195.5 213.5C187.443 210.711 179.11 208.711 170.5 207.5C170.389 206.883 170.056 206.383 169.5 206C161.655 205.178 153.989 205.344 146.5 206.5C141.609 206.532 136.943 207.199 132.5 208.5C129.161 208.89 125.827 209.39 122.5 210C121.944 210.383 121.611 210.883 121.5 211.5C119.214 211.595 117.214 212.262 115.5 213.5C112.848 213.41 110.515 214.076 108.5 215.5C106.62 215.229 105.287 215.896 104.5 217.5C101.455 218.279 98.7885 219.613 96.4999 221.5C95.1666 222.167 93.8332 222.833 92.4999 223.5C90.973 223.427 89.973 224.094 89.4999 225.5C85.8459 227.331 82.5126 229.664 79.4999 232.5C77.4999 233.833 75.8332 235.5 74.4999 237.5C71.3767 240.076 69.5434 243.41 68.9999 247.5C53.1348 232.408 41.3015 214.741 33.4999 194.5C33.7405 192.102 33.0738 190.102 31.4999 188.5C29.8841 181.427 28.5508 174.427 27.4999 167.5C27.2536 155.803 27.587 144.136 28.4999 132.5C29.0112 126.951 30.0112 121.617 31.4999 116.5C32.5374 115.07 33.204 113.403 33.4999 111.5C34.4971 111.53 35.1638 111.03 35.4999 110C36.233 107.165 36.8996 104.332 37.4999 101.5C37.4999 100.833 37.4999 100.167 37.4999 99.5001C38.9062 99.027 39.5729 98.027 39.4999 96.5001C44.8519 84.642 52.0185 73.9753 60.9999 64.5001C71.6986 52.9636 84.1986 43.9636 98.4999 37.5001C100.403 37.2042 102.07 36.5376 103.5 35.5001C103.611 34.8827 103.944 34.3827 104.5 34.0001C110.657 32.4643 116.657 30.631 122.5 28.5001C138.688 25.7972 155.021 24.7972 171.5 25.5001Z" fill="#41BF57"/>
<path fill-rule="evenodd" clip-rule="evenodd" d="M171.5 25.5001C175.489 25.1165 179.155 25.7831 182.5 27.5001C178.64 27.1917 174.974 26.525 171.5 25.5001Z" fill="#C6EBCC"/>
<path fill-rule="evenodd" clip-rule="evenodd" d="M171.5 25.5C155.021 24.7971 138.688 25.7971 122.5 28.5C122.611 27.8826 122.944 27.3826 123.5 27C139.575 24.3634 155.575 23.8634 171.5 25.5Z" fill="#BFE9C6"/>
<path fill-rule="evenodd" clip-rule="evenodd" d="M190.5 29.5C192.898 29.2594 194.898 29.9261 196.5 31.5C194.102 31.7406 192.102 31.0739 190.5 29.5Z" fill="#B4E5BC"/>
<path fill-rule="evenodd" clip-rule="evenodd" d="M202.5 33.5C204.967 33.7549 206.967 34.7549 208.5 36.5C206.033 36.2451 204.033 35.2451 202.5 33.5Z" fill="#ACE2B4"/>
<path fill-rule="evenodd" clip-rule="evenodd" d="M103.5 35.4999C102.07 36.5374 100.403 37.204 98.5 37.4999C99.6354 35.7867 101.302 35.12 103.5 35.4999Z" fill="#97DBA2"/>
<path fill-rule="evenodd" clip-rule="evenodd" d="M161.5 89.4999C154.391 89.2515 147.391 89.9181 140.5 91.4999C141.23 89.9549 142.563 89.1215 144.5 88.9999C150.349 88.1815 156.015 88.3482 161.5 89.4999Z" fill="#C2EAC9"/>
<path fill-rule="evenodd" clip-rule="evenodd" d="M161.5 89.5C166.773 90.3007 171.773 91.9673 176.5 94.5C176.973 95.9063 177.973 96.573 179.5 96.5C183.847 99.8483 187.514 103.848 190.5 108.5C190.427 110.027 191.094 111.027 192.5 111.5C194.072 114.215 195.072 117.215 195.5 120.5C196.383 129.467 196.716 138.467 196.5 147.5C196.5 147.833 196.5 148.167 196.5 148.5C195.593 150.657 194.927 152.99 194.5 155.5C185.547 176.489 169.547 185.989 146.5 184C142.891 183.299 139.558 182.132 136.5 180.5C136.027 179.094 135.027 178.427 133.5 178.5C121.339 171.671 114.339 161.338 112.5 147.5C112.284 138.467 112.617 129.467 113.5 120.5C113.433 119.041 113.766 117.708 114.5 116.5C116.771 114.388 118.104 111.721 118.5 108.5C123.665 99.9296 130.998 94.2629 140.5 91.5C147.391 89.9182 154.391 89.2516 161.5 89.5Z" fill="#FAFDFB"/>
<path fill-rule="evenodd" clip-rule="evenodd" d="M176.5 94.5C178.027 94.427 179.027 95.0937 179.5 96.5C177.973 96.573 176.973 95.9063 176.5 94.5Z" fill="#8FD99C"/>
<path fill-rule="evenodd" clip-rule="evenodd" d="M39.5 96.5C39.573 98.0269 38.9063 99.0269 37.5 99.5C37.427 97.9731 38.0937 96.9731 39.5 96.5Z" fill="#B1E3B9"/>
<path fill-rule="evenodd" clip-rule="evenodd" d="M37.5 101.5C36.8997 104.332 36.2331 107.165 35.5 110C35.1639 111.03 34.4972 111.53 33.5 111.5C33.8816 107.668 35.2149 104.335 37.5 101.5Z" fill="#6FCE7D"/>
<path fill-rule="evenodd" clip-rule="evenodd" d="M271.5 101.5C273.584 104.053 274.917 107.053 275.5 110.5C272.847 108.251 271.514 105.251 271.5 101.5Z" fill="#6ECD7C"/>
<path fill-rule="evenodd" clip-rule="evenodd" d="M147.5 110.5C149.304 109.838 151.304 109.505 153.5 109.5C156.814 109.343 159.814 110.009 162.5 111.5C157.537 110.746 152.537 110.413 147.5 110.5Z" fill="#A1DFAC"/>
<path fill-rule="evenodd" clip-rule="evenodd" d="M147.5 110.5C152.537 110.413 157.537 110.746 162.5 111.5C168.535 114.035 172.702 118.368 175 124.5C175.667 132.167 175.667 139.833 175 147.5C173.436 151.555 171.269 155.221 168.5 158.5C166.326 158.75 164.659 159.75 163.5 161.5C149.127 166.061 139.294 161.395 134 147.5C133.333 139.833 133.333 132.167 134 124.5C136.687 117.981 141.187 113.314 147.5 110.5Z" fill="#42BF59"/>
<path fill-rule="evenodd" clip-rule="evenodd" d="M190.5 108.5C191.906 108.973 192.573 109.973 192.5 111.5C191.094 111.027 190.427 110.027 190.5 108.5Z" fill="#A0DFAA"/>
<path fill-rule="evenodd" clip-rule="evenodd" d="M33.4999 111.5C33.204 113.403 32.5374 115.07 31.4999 116.5C31.12 114.302 31.7867 112.635 33.4999 111.5Z" fill="#B0E4B9"/>
<path fill-rule="evenodd" clip-rule="evenodd" d="M275.5 111.5C277.213 112.635 277.88 114.302 277.5 116.5C276.463 115.07 275.796 113.403 275.5 111.5Z" fill="#B1E5BA"/>
<path fill-rule="evenodd" clip-rule="evenodd" d="M118.5 108.5C118.104 111.721 116.771 114.388 114.5 116.5C114.896 113.279 116.229 110.612 118.5 108.5Z" fill="#C2EAC9"/>
<path fill-rule="evenodd" clip-rule="evenodd" d="M113.5 120.5C112.617 129.467 112.284 138.467 112.5 147.5C111.343 139.01 111.176 130.343 112 121.5C112.383 120.944 112.883 120.611 113.5 120.5Z" fill="#A2DFAC"/>
<path fill-rule="evenodd" clip-rule="evenodd" d="M195.5 120.5C196.117 120.611 196.617 120.944 197 121.5C197.824 130.343 197.657 139.01 196.5 147.5C196.716 138.467 196.383 129.467 195.5 120.5Z" fill="#A1DFAB"/>
<path fill-rule="evenodd" clip-rule="evenodd" d="M281.5 136.5C282.659 147.993 282.826 159.659 282 171.5C281.79 173.058 281.29 174.391 280.5 175.5C281.327 162.518 281.661 149.518 281.5 136.5Z" fill="#98DBA3"/>
<path fill-rule="evenodd" clip-rule="evenodd" d="M28.5 132.5C27.5871 144.136 27.2537 155.803 27.5 167.5C26.8338 161.843 26.5005 156.01 26.5 150C26.5042 143.793 27.1709 137.96 28.5 132.5Z" fill="#8FD99B"/>
<path fill-rule="evenodd" clip-rule="evenodd" d="M196.5 148.5C197.01 151.388 196.344 153.721 194.5 155.5C194.927 152.99 195.593 150.657 196.5 148.5Z" fill="#83D48F"/>
<path fill-rule="evenodd" clip-rule="evenodd" d="M168.5 158.5C167.341 160.25 165.674 161.25 163.5 161.5C164.659 159.75 166.326 158.75 168.5 158.5Z" fill="#B6E6BE"/>
<path fill-rule="evenodd" clip-rule="evenodd" d="M133.5 178.5C135.027 178.427 136.027 179.094 136.5 180.5C134.973 180.573 133.973 179.906 133.5 178.5Z" fill="#B3E6BC"/>
<path fill-rule="evenodd" clip-rule="evenodd" d="M278.5 186.5C278.34 188.153 277.674 189.486 276.5 190.5C276.157 188.517 276.824 187.183 278.5 186.5Z" fill="#A2E0AC"/>
<path fill-rule="evenodd" clip-rule="evenodd" d="M31.5 188.5C33.0739 190.102 33.7406 192.102 33.5 194.5C31.9261 192.898 31.2594 190.898 31.5 188.5Z" fill="#B8E7BF"/>
<path fill-rule="evenodd" clip-rule="evenodd" d="M276.5 190.5C276.975 193.082 276.308 195.082 274.5 196.5C274.875 194.302 275.542 192.302 276.5 190.5Z" fill="#CAEDCF"/>
<path fill-rule="evenodd" clip-rule="evenodd" d="M146.5 206.5C153.989 205.344 161.655 205.178 169.5 206C170.056 206.383 170.389 206.883 170.5 207.5C162.534 206.635 154.534 206.302 146.5 206.5Z" fill="#81D48F"/>
<path fill-rule="evenodd" clip-rule="evenodd" d="M273.5 200.5C273.245 202.967 272.245 204.967 270.5 206.5C270.755 204.033 271.755 202.033 273.5 200.5Z" fill="#B2E4BA"/>
<path fill-rule="evenodd" clip-rule="evenodd" d="M132.5 208.5C129.13 210.139 125.463 211.139 121.5 211.5C121.611 210.883 121.944 210.383 122.5 210C125.827 209.39 129.161 208.89 132.5 208.5Z" fill="#C3EBC9"/>
<path fill-rule="evenodd" clip-rule="evenodd" d="M115.5 213.5C113.485 214.924 111.152 215.59 108.5 215.5C110.515 214.076 112.848 213.41 115.5 213.5Z" fill="#B2E5BA"/>
<path fill-rule="evenodd" clip-rule="evenodd" d="M195.5 213.5C197.967 213.755 199.967 214.755 201.5 216.5C199.033 216.245 197.033 215.245 195.5 213.5Z" fill="#9FDEAA"/>
<path fill-rule="evenodd" clip-rule="evenodd" d="M108.5 215.5C107.486 216.674 106.153 217.34 104.5 217.5C105.287 215.896 106.62 215.229 108.5 215.5Z" fill="#92DA9E"/>
<path fill-rule="evenodd" clip-rule="evenodd" d="M104.5 217.5C102.469 219.755 99.8025 221.088 96.5 221.5C98.7886 219.613 101.455 218.279 104.5 217.5Z" fill="#C7ECCD"/>
<path fill-rule="evenodd" clip-rule="evenodd" d="M207.5 218.5C209.027 218.427 210.027 219.094 210.5 220.5C208.973 220.573 207.973 219.906 207.5 218.5Z" fill="#9CDEA8"/>
<path fill-rule="evenodd" clip-rule="evenodd" d="M263.5 219.5C263.408 221.848 262.408 223.514 260.5 224.5C260.75 222.326 261.75 220.659 263.5 219.5Z" fill="#CAEDD0"/>
<path fill-rule="evenodd" clip-rule="evenodd" d="M92.5 223.5C92.0269 224.906 91.0269 225.573 89.5 225.5C89.9731 224.094 90.9731 223.427 92.5 223.5Z" fill="#B1E4BA"/>
<path fill-rule="evenodd" clip-rule="evenodd" d="M170.5 228.5C170.5 228.833 170.5 229.167 170.5 229.5C159.833 228.167 149.167 228.167 138.5 229.5C138.5 229.167 138.5 228.833 138.5 228.5C149.152 227.252 159.819 227.252 170.5 228.5Z" fill="#5EC870"/>
<path fill-rule="evenodd" clip-rule="evenodd" d="M170.5 229.5C172.435 230.15 174.435 230.483 176.5 230.5C180.416 231.812 184.416 232.812 188.5 233.5C191.053 235.584 194.053 236.917 197.5 237.5C202.794 240.482 208.127 243.482 213.5 246.5C214.833 248.5 216.5 250.167 218.5 251.5C218.824 255.555 218.491 259.555 217.5 263.5C214.432 264.691 211.765 266.358 209.5 268.5C206.509 268.166 204.176 269.166 202.5 271.5C201.167 271.833 199.833 272.167 198.5 272.5C195.185 273.329 191.852 274.162 188.5 275C187.944 275.383 187.611 275.883 187.5 276.5C185.194 276.993 182.861 277.326 180.5 277.5C165.581 279.332 150.581 279.998 135.5 279.5C124.905 277.698 114.571 274.864 104.5 271C101.233 268.87 97.8998 267.037 94.4998 265.5C94.0267 264.094 93.0267 263.427 91.4998 263.5C91.3343 259.486 91.501 255.486 91.9998 251.5C93.4811 250.529 94.3144 249.196 94.4998 247.5C96.8582 245.322 99.5249 243.655 102.5 242.5C104.848 242.408 106.514 241.408 107.5 239.5C108.93 238.463 110.597 237.796 112.5 237.5C114.027 237.573 115.027 236.906 115.5 235.5C119.341 233.997 123.341 232.664 127.5 231.5C131.197 230.992 134.864 230.326 138.5 229.5C149.167 228.167 159.833 228.167 170.5 229.5Z" fill="#42BF58"/>
<path fill-rule="evenodd" clip-rule="evenodd" d="M138.5 228.5C138.5 228.833 138.5 229.167 138.5 229.5C134.864 230.326 131.197 230.992 127.5 231.5C130.809 229.63 134.475 228.63 138.5 228.5Z" fill="#ADE3B6"/>
<path fill-rule="evenodd" clip-rule="evenodd" d="M170.5 229.5C170.5 229.167 170.5 228.833 170.5 228.5C172.898 228.259 174.898 228.926 176.5 230.5C174.435 230.483 172.435 230.15 170.5 229.5Z" fill="#A4E0AE"/>
<path fill-rule="evenodd" clip-rule="evenodd" d="M188.5 233.5C191.947 234.083 194.947 235.416 197.5 237.5C194.053 236.917 191.053 235.584 188.5 233.5Z" fill="#B9E6C0"/>
<path fill-rule="evenodd" clip-rule="evenodd" d="M79.5 232.5C78.8333 235.167 77.1667 236.833 74.5 237.5C75.8333 235.5 77.5 233.833 79.5 232.5Z" fill="#CBECD0"/>
<path fill-rule="evenodd" clip-rule="evenodd" d="M115.5 235.5C115.027 236.906 114.027 237.573 112.5 237.5C112.973 236.094 113.973 235.427 115.5 235.5Z" fill="#A1DEAB"/>
<path fill-rule="evenodd" clip-rule="evenodd" d="M107.5 239.5C106.514 241.408 104.848 242.408 102.5 242.5C103.659 240.75 105.326 239.75 107.5 239.5Z" fill="#8ED99A"/>
<path fill-rule="evenodd" clip-rule="evenodd" d="M213.5 246.5C216.167 247.167 217.833 248.833 218.5 251.5C216.5 250.167 214.833 248.5 213.5 246.5Z" fill="#CAECCF"/>
<path fill-rule="evenodd" clip-rule="evenodd" d="M94.5001 247.5C94.3147 249.196 93.4814 250.529 92.0001 251.5C91.5013 255.486 91.3346 259.486 91.5001 263.5C90.3531 259.354 90.1865 255.02 91.0001 250.5C92.0392 249.29 93.2059 248.29 94.5001 247.5Z" fill="#7BD28A"/>
<path fill-rule="evenodd" clip-rule="evenodd" d="M91.5 263.5C93.0269 263.427 94.0269 264.094 94.5 265.5C92.9731 265.573 91.9731 264.906 91.5 263.5Z" fill="#9BDEA7"/>
<path fill-rule="evenodd" clip-rule="evenodd" d="M209.5 268.5C207.491 270.065 205.157 271.065 202.5 271.5C204.176 269.166 206.509 268.166 209.5 268.5Z" fill="#B8E6BF"/>
<path fill-rule="evenodd" clip-rule="evenodd" d="M198.5 272.5C198.38 273.586 197.713 274.253 196.5 274.5C193.481 275.17 190.481 275.837 187.5 276.5C187.611 275.883 187.944 275.383 188.5 275C191.852 274.162 195.185 273.329 198.5 272.5Z" fill="#C1EAC7"/>
<path fill-rule="evenodd" clip-rule="evenodd" d="M180.5 277.5C178.342 279.22 175.675 280.053 172.5 280C159.993 280.827 147.66 280.66 135.5 279.5C150.581 279.998 165.581 279.332 180.5 277.5Z" fill="#B0E3B9"/>
</svg>
