<svg width="313" height="312" viewBox="0 0 313 312" fill="none" xmlns="http://www.w3.org/2000/svg">
<path fill-rule="evenodd" clip-rule="evenodd" d="M229.5 28.5C181.5 27.1667 133.5 27.1667 85.5 28.5C108.991 27.1669 132.824 26.5002 157 26.5C180.833 26.6667 204.667 26.8333 228.5 27C229.056 27.3826 229.389 27.8826 229.5 28.5Z" fill="#7CD38B"/>
<path fill-rule="evenodd" clip-rule="evenodd" d="M229.5 28.5C234.441 30.4416 238.108 33.7749 240.5 38.5C241.822 118.481 241.822 198.481 240.5 278.5C239.583 277.873 238.583 277.539 237.5 277.5C233.544 275.212 230.211 272.212 227.5 268.5C223.359 263.015 218.359 258.682 212.5 255.5C209.622 253.411 206.955 251.077 204.5 248.5C204.027 247.094 203.027 246.427 201.5 246.5C196.833 242.167 192.167 237.833 187.5 233.5C183.359 228.015 178.359 223.682 172.5 220.5C167.543 216.554 162.543 212.554 157.5 208.5C146.533 216.81 136.2 225.81 126.5 235.5C124.251 236.08 122.585 237.413 121.5 239.5C109.511 249.491 97.8438 259.824 86.4998 270.5C84.251 271.08 82.5844 272.413 81.4998 274.5C79.4998 276.167 77.4998 277.833 75.4998 279.5C75.1665 279.5 74.8331 279.5 74.4998 279.5C73.1765 199.313 73.1765 118.98 74.4998 38.5C76.2404 33.0945 79.9071 29.7611 85.4998 28.5C133.5 27.1667 181.5 27.1667 229.5 28.5Z" fill="#40BF57"/>
<path fill-rule="evenodd" clip-rule="evenodd" d="M74.5 38.5C73.1767 118.98 73.1767 199.313 74.5 279.5C74.2172 280.289 73.7172 280.956 73 281.5C72.5 202.501 72.3333 123.501 72.5 44.5C72.2594 42.1016 72.9261 40.1016 74.5 38.5Z" fill="#4FC465"/>
<path fill-rule="evenodd" clip-rule="evenodd" d="M240.5 38.5C242.074 40.1016 242.741 42.1016 242.5 44.5C242.833 123.668 242.499 202.668 241.5 281.5C240.167 280.167 238.833 278.833 237.5 277.5C238.583 277.539 239.583 277.873 240.5 278.5C241.822 198.481 241.822 118.481 240.5 38.5Z" fill="#4EC464"/>
<path fill-rule="evenodd" clip-rule="evenodd" d="M72.5 44.5C72.3333 123.501 72.5 202.501 73 281.5C73.7172 280.956 74.2172 280.289 74.5 279.5C74.8333 279.5 75.1667 279.5 75.5 279.5C75.2381 281.564 74.0714 282.897 72 283.5C71.6667 283.167 71.3333 282.833 71 282.5C70.8333 242.833 70.6667 203.167 70.5 163.5C70.5001 123.494 71.1668 83.8277 72.5 44.5Z" fill="#DDF2E0"/>
<path fill-rule="evenodd" clip-rule="evenodd" d="M242.5 44.5C243.832 123.668 243.832 203.001 242.5 282.5C241.893 282.376 241.56 282.043 241.5 281.5C242.499 202.668 242.833 123.668 242.5 44.5Z" fill="#BDE8C5"/>
<path fill-rule="evenodd" clip-rule="evenodd" d="M172.5 220.5C178.359 223.682 183.359 228.015 187.5 233.5C182.199 229.534 177.199 225.2 172.5 220.5Z" fill="#6ACC7A"/>
<path fill-rule="evenodd" clip-rule="evenodd" d="M126.5 235.5C125.415 237.587 123.749 238.92 121.5 239.5C122.585 237.413 124.251 236.08 126.5 235.5Z" fill="#BDE7C4"/>
<path fill-rule="evenodd" clip-rule="evenodd" d="M201.5 246.5C203.027 246.427 204.027 247.094 204.5 248.5C202.973 248.573 201.973 247.906 201.5 246.5Z" fill="#8ED99A"/>
<path fill-rule="evenodd" clip-rule="evenodd" d="M212.5 255.5C218.359 258.682 223.359 263.015 227.5 268.5C222.199 264.534 217.199 260.2 212.5 255.5Z" fill="#6ACC7A"/>
<path fill-rule="evenodd" clip-rule="evenodd" d="M86.5 270.5C85.4154 272.587 83.7488 273.92 81.5 274.5C82.5846 272.413 84.2512 271.08 86.5 270.5Z" fill="#C1E9C7"/>
</svg>
