<svg width="278" height="345" viewBox="0 0 278 345" fill="none" xmlns="http://www.w3.org/2000/svg">
<g filter="url(#filter0_d_15_1492)">
<path d="M158.936 26.5574C173.209 34.7485 176.786 49.553 174.218 64.8274C174.159 65.2079 174.23 65.5603 174.431 65.8849C178.61 72.6493 178.61 83.1064 171.013 87.9237C170.737 88.0997 170.416 88.2028 170.084 88.2226C169.752 88.2424 169.42 88.1781 169.122 88.0363C168.825 87.8946 168.573 87.6804 168.392 87.4158C168.21 87.1512 168.107 86.8457 168.091 86.5305L167.542 75.9895C167.507 75.3964 167.194 74.9992 166.603 74.7978C158.546 72.1289 150.241 66.6234 146.929 59.1373C146.799 58.8351 146.705 58.8463 146.646 59.1708C146.61 59.3722 146.634 59.5569 146.717 59.7247C149.456 65.1967 153.588 69.5776 159.113 72.8675C159.17 72.9001 159.219 72.9446 159.256 72.9978C159.293 73.0509 159.316 73.1113 159.325 73.1744C159.333 73.2374 159.327 73.3015 159.305 73.3617C159.284 73.422 159.248 73.4768 159.201 73.5221L158.865 73.841C158.841 73.8634 158.812 73.869 158.776 73.8578C150.146 70.1539 144.875 63.9546 142.962 55.2599C142.927 55.0473 142.886 55.0473 142.838 55.2599C141.823 60.8997 139.356 65.5995 135.436 69.3594C129.887 74.6635 122.904 76.8959 114.487 76.0566C106.341 75.251 98.3304 72.459 90.4559 67.6809C89.8538 67.3228 89.5292 67.4794 89.482 68.1509C88.9153 75.9615 85.6569 82.8322 79.7067 88.763C79.6742 88.7946 79.651 88.8337 79.6395 88.8765C79.628 88.9192 79.6286 88.9641 79.6411 89.0066C79.6537 89.0491 79.6778 89.0878 79.7111 89.1187C79.7443 89.1495 79.7856 89.1716 79.8307 89.1826L96.3884 93.4628C96.7071 93.5411 96.9432 93.446 97.0967 93.1775C101.949 84.9192 109.339 81.5398 119.268 83.0392C128.453 84.4156 133.954 90.324 135.773 100.764C135.891 101.425 136.286 101.648 136.959 101.436C139.214 100.753 141.463 100.72 143.706 101.335C144.426 101.525 144.904 101.29 145.14 100.63C147.454 94.386 151.557 90.6317 157.448 89.3672C159.904 88.8301 162.33 89.1266 164.726 90.2568C166.781 91.2192 168.427 92.59 169.667 94.3692C173.445 99.7852 174.531 105.638 172.925 111.926C171.367 118.025 168.233 122.512 163.522 125.388C157.2 129.265 149.001 127.369 146.008 120.755C145.642 119.983 145.394 120.017 145.264 120.856L144.804 123.726C144.775 123.913 144.702 124.091 144.59 124.248C144.478 124.404 144.331 124.536 144.158 124.632C143.985 124.728 143.791 124.787 143.591 124.805C143.39 124.823 143.188 124.798 142.998 124.733L138.978 123.29C138.482 123.122 138.216 123.284 138.181 123.777L137.703 130.155C137.68 130.435 137.544 130.697 137.323 130.884C137.102 131.072 136.813 131.172 136.516 131.162C130.979 131.017 126.605 128.823 123.394 124.582C123.323 124.482 123.335 124.392 123.43 124.314L123.819 123.978C124.15 123.698 124.474 123.704 124.793 123.995C127.308 126.3 130.566 127.906 134.568 128.812C135.277 128.969 135.631 128.7 135.631 128.007V120.52C135.629 120.321 135.686 120.125 135.795 119.954C135.905 119.784 136.062 119.645 136.249 119.555C136.437 119.464 136.647 119.425 136.857 119.441C137.067 119.458 137.268 119.529 137.437 119.648C138.5 120.375 139.609 120.867 140.766 121.125C141.439 121.27 141.788 121.013 141.811 120.353L142.413 104.474C142.437 103.758 142.071 103.383 141.315 103.349C139.102 103.249 135.861 103.198 135.117 105.682C132.721 113.683 127.503 118.557 119.463 120.302C115.012 121.276 110.561 120.683 106.11 118.523C98.4072 114.813 92.6341 104.709 95.8217 96.6184C95.8708 96.4931 95.8917 96.3594 95.883 96.226C95.8743 96.0925 95.8361 95.9623 95.7711 95.8437C95.706 95.7251 95.6154 95.6207 95.5052 95.5373C95.395 95.4539 95.2675 95.3934 95.131 95.3595L77.7765 91.029C77.1272 90.8611 76.5192 90.9506 75.9525 91.2975C75.374 91.6556 74.8604 92.092 74.4118 92.6067C74.298 92.7369 74.1501 92.8368 73.9831 92.8964C73.8162 92.9559 73.6362 92.9729 73.4615 92.9456C73.2869 92.9183 73.1238 92.8476 72.989 92.7409C72.8542 92.6342 72.7524 92.4953 72.6941 92.3382C71.36 88.9028 68.7982 85.6745 65.0085 82.6532C63.4265 81.3887 61.6792 80.6725 59.7667 80.5047C55.5874 80.1522 54.3656 83.4085 53.4801 86.7152C52.9016 88.8077 52.2051 88.8469 51.3905 86.8327C47.0341 76.1238 48.7755 66.45 56.6146 57.8112C57.0986 57.2853 57.1872 56.6978 56.8802 56.0488C56.6441 55.5564 56.2604 55.1648 55.7291 54.8738C55.2805 54.6276 54.9618 54.2752 54.7729 53.8164C51.2665 45.491 51.9454 37.4565 56.8094 29.713C63.3793 19.2894 78.6088 16.9898 90.4737 20.3301C91.123 20.5091 91.6956 20.3749 92.1914 19.9272C105.013 8.34553 119.498 7.30485 135.649 16.8052C136.227 17.1521 136.859 17.3423 137.543 17.3759C138.346 17.4095 138.783 17.7788 138.854 18.4837C138.937 19.2558 139.314 19.8601 139.987 20.2965C141.109 21.0127 142.036 21.9135 142.768 22.9989C143.181 23.6144 143.765 23.8885 144.521 23.8214C147.271 23.5752 150.099 23.3906 153.003 23.2675C154.018 23.2339 154.077 22.9877 153.18 22.5289C153.027 22.4506 152.885 22.3499 152.755 22.2268C152.342 21.8016 152.33 21.3652 152.72 20.9176C152.826 20.7945 152.968 20.7106 153.145 20.6658C153.558 20.5427 153.83 20.6826 153.959 21.0854L154.19 21.7736C154.603 23.0045 155.116 23.0437 155.73 21.8911C156.262 20.8952 156.999 20.1007 157.944 19.5076C158.605 19.0936 158.764 19.2223 158.422 19.8937C157.985 20.7441 157.483 21.589 156.917 22.4282C156.445 23.122 156.633 23.5696 157.483 23.771C169.242 26.5685 175.895 33.3553 177.441 44.1314C177.795 46.6323 179.478 49.4522 178.132 52.675C177.742 53.6149 177.453 53.587 177.264 52.591C176.756 49.9838 176.261 47.4436 175.777 44.9706C173.935 35.4255 168.38 29.1758 159.113 26.2217C157.968 25.8636 157.908 25.9755 158.936 26.5574ZM79.2994 20.7833C70.9764 20.1454 62.1928 24.946 58.1552 31.744C54.2711 38.2901 53.2794 44.9482 55.1802 51.7182C55.9829 54.5605 56.4257 54.5101 56.5083 51.5672C56.6146 47.908 56.1896 44.1817 57.0927 40.5561C59.8907 29.3213 67.2988 22.8422 79.3172 21.119C80.3324 20.9735 80.3266 20.8616 79.2994 20.7833ZM110.998 72.1289C106.169 71.6366 101.937 70.9316 98.3009 70.014C98.0176 69.9469 97.929 70.042 98.0353 70.2993C98.0707 70.3777 98.1356 70.428 98.2301 70.4504C101.795 71.4799 105.225 72.3415 108.519 73.0353C112.615 73.897 116.116 74.2215 119.02 74.0089C127.697 73.3822 134.285 69.2307 138.783 61.5543C139.338 60.6255 139.267 60.5808 138.571 61.42C133.352 67.7984 125.95 71.3064 116.364 71.9443C114.805 72.045 112.486 72.28 110.998 72.1289ZM114.256 85.1206C111.954 85.1654 109.9 85.6241 108.094 86.497C100.703 90.089 97.3977 95.8407 98.1769 103.752C99.204 114.26 110.697 120.504 121.216 116.945C132.638 113.068 135.365 101.218 129.504 91.7339C129.22 91.2751 128.854 91.1968 128.406 91.4989C125.513 93.3677 122.361 93.6307 118.949 92.2878C116.966 91.5045 116.753 90.4191 118.312 89.0315C119.693 87.8006 121.387 87.2243 123.394 87.3027C124.468 87.3362 124.522 87.1292 123.554 86.6816C121.169 85.5738 118.07 85.0535 114.256 85.1206ZM161.734 96.417C159.573 98.8004 155.217 96.5848 153.039 95.2252C152.425 94.856 151.911 94.9511 151.498 95.5106C146.162 102.683 144.468 109.565 146.415 116.156C147.903 121.225 151.327 123.978 156.687 124.415C160.039 124.694 163.068 123.088 165.771 119.597C171.273 112.514 172.146 105.123 168.392 97.4241C167.046 94.6713 164.419 92.8417 160.512 91.9353C159.225 91.6332 159.03 91.9409 159.927 92.8585L161.698 94.6545C162.265 95.2252 162.277 95.8127 161.734 96.417Z" fill="#385A64"/>
<path d="M58.1552 31.744C62.1928 24.946 70.9763 20.1455 79.2994 20.7833C80.3265 20.8617 80.3324 20.9735 79.3171 21.119C67.2988 22.8423 59.8907 29.3213 57.0927 40.5562C56.1895 44.1818 56.6145 47.908 56.5083 51.5672C56.4256 54.5102 55.9829 54.5606 55.1801 51.7183C53.2794 44.9483 54.2711 38.2902 58.1552 31.744Z" fill="white"/>
<path d="M110.998 72.1289C112.486 72.28 114.805 72.045 116.364 71.9443C125.95 71.3065 133.352 67.7984 138.571 61.4201C139.267 60.5808 139.338 60.6255 138.783 61.5543C134.285 69.2307 127.697 73.3822 119.02 74.0089C116.116 74.2215 112.615 73.897 108.519 73.0354C105.225 72.3416 101.795 71.4799 98.2301 70.4504C98.1356 70.4281 98.0707 70.3777 98.0353 70.2994C97.929 70.042 98.0176 69.9469 98.3009 70.014C101.937 70.9316 106.17 71.6366 110.998 72.1289Z" fill="white"/>
<path d="M114.256 85.1206C118.07 85.0535 121.169 85.5738 123.554 86.6816C124.522 87.1292 124.469 87.3362 123.394 87.3027C121.387 87.2243 119.693 87.8006 118.312 89.0315C116.753 90.4191 116.966 91.5046 118.949 92.2879C122.361 93.6307 125.513 93.3677 128.406 91.499C128.854 91.1968 129.22 91.2752 129.504 91.7339C135.365 101.218 132.638 113.068 121.216 116.945C110.697 120.504 99.2041 114.26 98.177 103.752C97.3978 95.8407 100.703 90.089 108.094 86.497C109.9 85.6241 111.954 85.1654 114.256 85.1206ZM121.539 112.482C122.749 112.668 124.023 112.183 125.08 111.133C126.138 110.084 126.892 108.556 127.177 106.886C127.319 106.06 127.341 105.223 127.242 104.424C127.143 103.624 126.926 102.879 126.602 102.229C126.278 101.579 125.854 101.038 125.355 100.637C124.855 100.236 124.29 99.9816 123.691 99.8897C122.481 99.7039 121.207 100.189 120.15 101.239C119.092 102.288 118.338 103.816 118.053 105.485C117.911 106.312 117.889 107.149 117.988 107.948C118.087 108.747 118.304 109.493 118.628 110.143C118.952 110.792 119.376 111.333 119.875 111.735C120.375 112.136 120.94 112.39 121.539 112.482Z" fill="white"/>
<path d="M68.1607 102.779C66.6377 97.1835 64.1881 92.7467 60.8116 89.468C60.4574 89.1323 60.4574 88.7966 60.8116 88.4609L61.1481 88.1251C61.2897 87.9909 61.4314 87.9853 61.5731 88.1084C69.0343 94.0727 72.1806 101.743 71.0118 111.121C70.9528 111.524 70.7107 111.719 70.2857 111.708L69.4712 111.675C69.0225 111.652 68.7805 111.428 68.7451 111.003C68.3673 106.684 66.3721 103.758 62.7595 102.225C62.429 102.09 62.3345 101.861 62.4762 101.536L62.7064 101.033C62.73 100.966 62.7772 100.938 62.8481 100.949C64.7252 101.296 66.2954 102.018 67.5586 103.114C68.1725 103.64 68.3732 103.528 68.1607 102.779Z" fill="#385A64"/>
<path d="M161.698 94.6546L159.927 92.8586C159.03 91.941 159.225 91.6332 160.512 91.9354C164.419 92.8418 167.046 94.6714 168.392 97.4241C172.146 105.123 171.273 112.514 165.771 119.597C163.068 123.089 160.039 124.694 156.687 124.415C151.327 123.978 147.903 121.225 146.416 116.156C144.468 109.565 146.162 102.683 151.498 95.5106C151.911 94.9511 152.425 94.856 153.039 95.2253C155.217 96.5849 159.573 98.8005 161.734 96.417C162.277 95.8127 162.265 95.2253 161.698 94.6546ZM151.31 116.428C152.545 116.637 153.851 116.185 154.942 115.174C156.033 114.162 156.819 112.673 157.127 111.034C157.435 109.395 157.24 107.74 156.585 106.434C155.93 105.127 154.868 104.276 153.633 104.068C152.399 103.859 151.093 104.31 150.002 105.322C148.911 106.334 148.125 107.823 147.817 109.462C147.509 111.101 147.704 112.756 148.359 114.062C149.014 115.369 150.076 116.22 151.31 116.428Z" fill="white"/>
<path d="M118.052 105.485C117.458 108.963 119.019 112.095 121.539 112.482C124.059 112.869 126.583 110.364 127.178 106.886C127.772 103.409 126.211 100.276 123.691 99.8896C121.171 99.5028 118.647 102.008 118.052 105.485Z" fill="#385A64"/>
<path d="M147.817 109.462C147.175 112.875 148.74 115.994 151.31 116.428C153.881 116.862 156.485 114.447 157.127 111.034C157.768 107.621 156.204 104.502 153.633 104.068C151.063 103.634 148.458 106.049 147.817 109.462Z" fill="#385A64"/>
<path d="M122.934 135.963C123.595 136.265 124.28 136.293 124.988 136.047C125.826 135.756 126.033 135.985 125.608 136.735C125.502 136.925 125.372 137.104 125.218 137.272C124.958 137.585 124.634 137.764 124.244 137.809C121.387 138.122 119.516 136.903 118.631 134.15C118.572 134.004 118.613 133.876 118.755 133.764L119.144 133.462C119.404 133.26 119.64 133.294 119.852 133.562C120.62 134.581 121.647 135.381 122.934 135.963Z" fill="#385A64"/>
<path d="M110.449 151.204C110.957 151.271 111.134 151.534 110.98 151.992L106.181 165.907C106.154 165.986 106.11 166.059 106.051 166.121C105.993 166.183 105.921 166.233 105.841 166.268C105.762 166.303 105.675 166.321 105.587 166.323C105.5 166.324 105.412 166.309 105.331 166.277C93.372 161.476 85.5684 152.921 81.9204 140.612C81.3773 138.777 81.8731 138.475 83.4079 139.706C91.2588 146.006 100.273 149.838 110.449 151.204Z" fill="#385A64"/>
<path d="M73.3493 193.838C73.5618 193.245 73.7389 193.256 73.8806 193.871C74.2229 195.404 74.1167 196.965 73.5618 198.554C68.9694 211.68 64.3474 224.381 59.6959 236.657C59.5891 236.941 59.4008 237.193 59.1512 237.385C58.9016 237.578 58.6001 237.703 58.2792 237.748C57.3229 237.893 56.6205 237.686 56.1719 237.127C55.3455 236.075 55.558 235.829 56.8094 236.388C56.9629 236.455 57.1163 236.483 57.2698 236.472C57.7066 236.416 57.9959 236.192 58.1375 235.801L73.3493 193.838Z" fill="#385A64"/>
<path d="M54.8175 225.262L17.1393 211.696C16.8285 211.584 16.4808 211.733 16.3627 212.027L16.1992 212.435C16.0811 212.73 16.2374 213.059 16.5482 213.171L54.2264 226.737C54.5373 226.849 54.885 226.701 55.0031 226.407L55.1666 225.999C55.2847 225.704 55.1284 225.374 54.8175 225.262Z" fill="#385A64"/>
<path d="M126.971 306.13C130.49 306.455 132.78 306.427 133.842 306.046C137.62 304.715 139.71 302.426 140.111 299.181C140.454 296.473 139.787 294.09 138.11 292.031C136.434 289.96 134.515 288.299 132.355 287.045C130.065 285.714 130.265 285.076 132.957 285.132C138.836 285.249 145.211 281.909 144.361 275.699C143.866 272.129 141.77 269.214 138.075 266.954C128.701 261.247 117.45 257.313 104.322 255.154C104.086 255.109 103.903 254.991 103.773 254.801C103.679 254.656 103.738 254.493 103.95 254.314C104.045 254.247 104.151 254.208 104.269 254.197C108.643 253.677 112.84 255.171 117.32 255.355C122.29 255.579 127.219 255.836 132.107 256.127C133.913 256.228 135.773 256.116 137.685 255.792C142.36 254.969 145.052 250.907 141.847 246.845C139.285 243.589 135.631 241.222 130.885 239.745C119.61 236.243 106.742 235.157 92.28 236.489C92.1392 236.501 91.9973 236.48 91.8672 236.428C91.7371 236.375 91.6229 236.292 91.535 236.187C91.4471 236.082 91.3882 235.958 91.3636 235.826C91.3391 235.694 91.3497 235.558 91.3946 235.431L99.0979 213.09C99.3576 212.318 99.9007 212.038 100.727 212.251C129.167 219.569 157.69 226.82 186.296 234.005C191.112 235.213 195.823 235.28 200.728 235.599C203.951 235.817 206.802 234.827 209.813 233.837C226.246 228.387 242.792 222.988 259.45 217.639C259.571 217.6 259.7 217.594 259.824 217.622C259.947 217.65 260.06 217.71 260.149 217.796C260.238 217.882 260.299 217.99 260.326 218.108C260.353 218.226 260.344 218.348 260.3 218.461C247.101 251.271 233.796 284.27 220.385 317.46C220.172 318.014 220.084 318.484 220.19 319.088C220.273 319.513 220.096 319.776 219.659 319.877C211.159 321.902 202.989 323.945 195.15 326.004C193.674 326.395 192.252 327.005 190.882 327.833C189.548 328.639 187.907 328.868 185.959 328.521C185.389 328.411 184.8 328.434 184.241 328.589C177.76 330.368 171.845 332.6 164.903 332.6C156.403 332.6 148.523 331.403 141.262 329.008C138.517 328.085 135.613 328.857 133.187 327.884C132.68 327.671 132.171 327.419 131.664 327.128C131.027 326.759 130.342 326.496 129.61 326.339C120.012 324.28 110.284 322.031 100.426 319.592C100.261 319.547 100.19 319.441 100.214 319.273C100.308 318.545 100.715 318.081 101.435 317.88C102.333 317.634 103.135 317.589 103.844 317.745C108.236 318.674 112.911 319.709 117.869 320.851C121.257 321.634 123.813 321.847 125.537 321.488C128.843 320.795 130.608 318.641 130.832 315.026C131.044 311.72 128.76 308.95 126.971 306.13Z" fill="#385A64"/>
<path d="M15.3178 269.639C15.2941 269.591 15.2808 269.538 15.2787 269.485C15.2766 269.432 15.2857 269.379 15.3055 269.329C15.3253 269.279 15.3553 269.233 15.3939 269.194C15.4325 269.155 15.4789 269.124 15.5303 269.102L15.6897 269.018C18.3753 267.82 21.0485 266.663 23.5567 265.611C26.0649 264.56 28.3589 263.635 30.3076 262.89C32.2563 262.145 33.8216 261.594 34.9141 261.269C36.0065 260.944 36.6047 260.851 36.6745 260.995L36.8339 261.331C36.9228 261.467 36.4776 261.84 35.5239 262.429C34.5701 263.017 33.1266 263.809 31.2766 264.759C29.4265 265.71 27.2064 266.799 24.7441 267.965C22.2817 269.131 19.6258 270.35 16.9293 271.553L16.7699 271.62C16.7188 271.642 16.6635 271.655 16.6072 271.657C16.551 271.659 16.4948 271.65 16.4421 271.631C16.3894 271.613 16.3411 271.584 16.3001 271.548C16.2591 271.511 16.2262 271.467 16.2032 271.418L15.3178 269.639Z" fill="#385A64"/>
<path d="M121.411 280.164C124.055 281.45 126.594 282.877 129.026 284.444C129.096 284.488 129.108 284.544 129.061 284.612L128.849 284.981C128.769 285.105 128.646 285.198 128.502 285.241C128.358 285.285 128.204 285.276 128.069 285.216C117.409 280.639 107.622 277.377 98.7083 275.43C94.7887 274.569 90.7039 273.489 86.4538 272.191C86.3121 272.146 86.2354 272.056 86.2236 271.922C86.2 271.765 86.2118 271.609 86.259 271.452C86.2826 271.363 86.3476 271.323 86.4538 271.335C98.6964 271.838 110.349 274.781 121.411 280.164Z" fill="#385A64"/>
<path d="M126.971 306.13C126.794 306.589 126.357 306.65 125.661 306.315C113.159 300.362 99.8711 295.5 85.7986 291.729C84.6298 291.415 84.6416 291.169 85.8339 290.99C87.0263 290.8 88.2128 290.811 89.3934 291.024C95.9338 292.221 102.781 294.179 109.936 296.898C116.511 299.405 122.19 302.482 126.971 306.13Z" fill="#385A64"/>
</g>
<defs>
<filter id="filter0_d_15_1492" x="-4" y="0" width="286" height="353" filterUnits="userSpaceOnUse" color-interpolation-filters="sRGB">
<feFlood flood-opacity="0" result="BackgroundImageFix"/>
<feColorMatrix in="SourceAlpha" type="matrix" values="0 0 0 0 0 0 0 0 0 0 0 0 0 0 0 0 0 0 127 0" result="hardAlpha"/>
<feOffset dy="4"/>
<feGaussianBlur stdDeviation="2"/>
<feComposite in2="hardAlpha" operator="out"/>
<feColorMatrix type="matrix" values="0 0 0 0 0 0 0 0 0 0 0 0 0 0 0 0 0 0 0.25 0"/>
<feBlend mode="normal" in2="BackgroundImageFix" result="effect1_dropShadow_15_1492"/>
<feBlend mode="normal" in="SourceGraphic" in2="effect1_dropShadow_15_1492" result="shape"/>
</filter>
</defs>
</svg>
