<svg width="300" height="81" viewBox="0 0 300 81" fill="none" xmlns="http://www.w3.org/2000/svg">
<g clip-path="url(#clip0_12_119)">
<path d="M47.2909 27.016L46.209 27.4668C45.8745 27.607 45.5339 27.6331 45.1873 27.5469C42.8232 26.9389 40.8398 26.2407 39.2371 25.4533C37.8848 24.7822 37.1535 22.8489 38.3856 21.5967C38.5589 21.4094 38.7092 21.2061 38.8364 20.9857C39.0227 20.6251 38.9596 20.3206 38.6461 20.0741C37.3699 19.0584 36.0477 18.4143 34.6793 18.1408C34.0983 17.5128 33.5574 16.9518 33.0565 16.458C31.7543 15.1687 32.171 14.15 34.3087 13.4027C35.1902 13.0882 35.3865 12.5342 34.8997 11.7399C33.4272 9.32575 35.6109 7.70298 37.1836 6.3707C37.4631 6.14031 37.3899 5.69354 37.0514 5.56532C37.0163 5.5523 36.9802 5.54329 36.9432 5.53929C34.9858 5.27183 33.2198 5.4922 31.6441 6.20041C30.5563 6.68825 29.2791 6.40176 28.5088 5.49922L26.5053 3.17524C26.2509 2.88074 25.9344 2.69742 25.5537 2.6243C23.9169 2.30375 22.2611 2.41695 20.5852 2.96488C20.2266 3.08409 20.1314 3.54687 20.4149 3.7973C20.445 3.82435 20.479 3.84739 20.5151 3.86642C22.7189 4.9683 25.754 6.87156 22.7589 9.53612C22.5085 9.75449 22.5496 10.1542 22.8391 10.3175C24.4117 11.219 28.038 12.7817 26.9761 15.1157C26.4853 16.1875 24.9126 17.2193 23.971 18.251C22.6087 20.2745 21.2363 22.3641 19.854 24.5217C18.702 26.3148 15.9974 29.6806 13.6634 26.9459C13.3829 26.6253 13.0924 26.6213 12.7919 26.9359C11.5798 28.2281 12.1307 30.2816 12.882 31.674C13.1024 32.0807 13.1285 32.4984 12.9622 32.9261C12.4543 34.2414 11.4726 34.8554 10.0171 34.7693C7.68614 34.635 5.42929 34.9626 3.24556 35.7509C2.73769 35.9323 2.53334 36.5423 2.82484 37.0031C4.8483 40.1745 7.59901 41.1932 11.079 40.0583C12.3401 39.6476 13.5722 40.7565 13.2977 42.0537C13.2807 42.1309 13.2587 42.207 13.2326 42.2821C12.3511 44.7123 10.7414 46.299 8.40437 47.0402C7.48881 47.3337 7.44574 47.7244 8.27416 48.2122C8.99539 48.639 9.78674 49.0166 10.6482 49.3442C11.5668 49.6908 12.6016 49.5275 13.3729 48.9135C14.4006 48.0921 15.4564 47.0132 16.5383 45.6779C17.2655 44.7694 18.0969 44.5259 19.0325 44.9467C19.5584 45.1761 19.9251 45.6679 19.9942 46.2389L20.8857 54.2426C21.66 57.0604 22.9422 60.2528 24.7323 63.8189C25.0789 64.5061 25.0058 65.2574 24.5119 66.0728C23.8508 65.7823 23.2297 65.6321 22.8491 64.9709C19.7768 59.7079 18.0308 54.3287 17.6101 48.8333C17.57 48.2383 17.3527 48.1652 16.959 48.6129C16.2177 49.4644 15.4865 50.426 14.4848 50.997C10.4879 53.311 6.27074 50.1957 3.70635 47.1304C3.18245 46.5114 3.53304 45.5577 4.33742 45.4135C4.40353 45.4024 4.47066 45.3964 4.53777 45.3974C6.32082 45.4175 7.96363 44.9366 9.4662 43.955C10.7484 43.1195 10.6242 42.769 9.09556 42.9032C4.71406 43.2768 1.68288 41.056 0 36.2418V35.2401C2.8649 32.9091 6.26672 32.0176 10.2075 32.5655C10.4589 32.5986 10.6532 32.3461 10.5551 32.1107C10.55 32.0987 10.544 32.0857 10.538 32.0746C9.25583 29.7306 9.35601 27.61 10.8385 25.7138C12.274 23.8837 13.7736 23.7634 15.3362 25.3532C15.5947 25.6196 16.0294 25.5966 16.2578 25.3031C18.9023 21.8672 20.9358 17.4196 24.3517 14.745C24.8185 14.3774 24.7824 14.0699 24.2415 13.8234C21.8374 12.7216 18.2813 10.628 21.3365 7.66291C21.637 7.37542 21.61 7.12199 21.2563 6.90162C20.448 6.40076 19.5895 5.93296 18.682 5.49922C17.0191 4.70786 16.6986 2.6243 18.4015 1.67267C23.2558 -1.059 27.0963 -0.444952 29.9212 3.51582C30.2948 4.03671 30.7726 4.15993 31.3536 3.88646C34.1183 2.57021 36.8089 2.71745 39.4274 4.32721C40.4922 4.98032 40.6185 6.47989 39.6778 7.30229L37.424 9.25564C36.9051 9.7024 36.7939 10.4657 37.1636 11.0487C38.2985 12.8448 37.8908 14.2141 35.9415 15.1557C35.667 15.295 35.6389 15.6756 35.8914 15.8409C35.9134 15.8549 35.9365 15.8669 35.9615 15.877C38.596 16.9288 43.4743 19.1926 40.4492 22.7788C40.2048 23.0592 40.324 23.499 40.6796 23.6302C42.673 24.3114 46.4695 24.8323 47.2909 27.016Z" fill="black"/>
<path d="M95.3631 0.00984349H94.0007C93.7075 0.00984349 93.4698 0.247538 93.4698 0.54075V79.8564C93.4698 80.1496 93.7075 80.3873 94.0007 80.3873H95.3631C95.6563 80.3873 95.894 80.1496 95.894 79.8564V0.54075C95.894 0.247538 95.6563 0.00984349 95.3631 0.00984349Z" fill="#F9F7F8"/>
<path d="M206.854 5.39902C206.213 7.27523 205.772 9.59619 205.531 12.3609C205.161 16.5581 210.34 17.1291 211.682 20.4447C212.904 23.4699 211.592 30.0211 210.901 32.8059C209.819 37.0992 206.917 39.1267 202.196 38.8863C194.673 38.4956 196.857 29.5904 198.059 24.2613C198.152 23.8536 198.405 23.6532 198.82 23.6602L203.348 23.6803C203.65 23.6833 203.881 23.9517 203.839 24.2513L202.707 32.1047C202.612 32.7258 202.823 33.2166 203.338 33.5772C203.671 33.8176 204.079 33.7174 204.56 33.2767C204.73 33.1194 204.854 32.9181 204.92 32.6957C206.536 26.9919 206.516 23.3697 204.86 21.8271C203.057 20.1442 199.912 18.1608 199.691 15.5263C199.141 8.80484 200.763 -2.214 210.56 0.400467C215.849 1.81288 214.156 9.25561 213.395 13.2925C213.341 13.573 213.171 13.7132 212.884 13.7132L208.056 13.7433C207.675 13.7493 207.508 13.563 207.555 13.1823L208.446 6.5009C208.52 5.95297 208.306 5.55528 207.805 5.30886L207.485 5.14859C207.241 5.02338 206.945 5.14158 206.854 5.39902Z" fill="#F9F7F8"/>
<path d="M224.704 32.7759C224.911 33.3969 225.221 33.7004 225.636 33.6874C226.377 33.6534 226.804 33.2727 226.918 32.5455L228.491 22.3581C228.571 21.8301 228.874 21.5667 229.402 21.5667L233.65 21.5867C234.224 21.5927 234.461 21.8802 234.361 22.4482C233.229 28.9894 233.93 40.3087 223.412 38.8362C219.936 38.3554 218.353 35.3603 218.794 32.0947C219.736 25.0687 220.814 17.1191 222.03 8.24392C222.751 2.99495 226.167 -0.771495 231.877 0.230218C235.308 0.831246 236.851 2.98493 236.504 6.69126C236.224 9.61626 235.783 12.8348 235.182 16.3478C235.108 16.7745 234.858 16.9889 234.431 16.9889L229.933 16.9789C229.465 16.9789 229.262 16.7445 229.322 16.2777L230.594 6.79144C230.68 6.1834 230.48 5.68554 229.993 5.29888C229.813 5.15864 229.636 5.12459 229.462 5.19871C228.842 5.44714 228.4 6.0071 228.3 6.67123C226.998 15.4392 225.786 23.9608 224.664 32.2349C224.637 32.4193 224.651 32.6036 224.704 32.7759Z" fill="#F9F7F8"/>
<path d="M121.608 20.545C123.591 14.2742 125.548 7.79615 127.478 1.11172C127.584 0.737081 127.832 0.553772 128.219 0.560784L134.68 0.610865C135.047 0.610865 135.204 0.794181 135.151 1.16181L129.942 38.0248C129.907 38.2622 129.706 38.4376 129.471 38.4355H124.563C124.342 38.4376 124.171 38.2432 124.202 38.0248L126.486 22.5083C126.499 22.4282 126.466 22.3811 126.386 22.3681C125.35 22.2138 125.277 22.1978 126.166 22.318C126.172 22.318 126.176 22.321 126.176 22.328L122.049 37.7844C121.935 38.2252 121.651 38.4456 121.197 38.4456L117.17 38.4556C116.676 38.4556 116.429 38.2082 116.429 37.7143C116.455 32.7859 116.459 27.7302 116.439 22.5484C116.439 22.4212 116.375 22.354 116.249 22.348H116.239C116.119 22.341 116.048 22.3981 116.028 22.5183C115.34 27.7473 114.649 32.8861 113.955 37.9347C113.908 38.2753 113.714 38.4456 113.374 38.4456L108.696 38.4355C108.377 38.4325 108.136 38.1481 108.185 37.8345L113.364 1.13176C113.417 0.744097 113.637 0.553772 114.025 0.560784L120.676 0.610865C121.057 0.610865 121.247 0.80119 121.247 1.18184L121.167 20.4748C121.16 21.4695 121.307 21.4926 121.608 20.545Z" fill="#F9F7F8"/>
<path d="M137.525 37.8946L142.724 1.0115C142.758 0.783109 142.953 0.612816 143.185 0.610812L148.163 0.550712C148.449 0.547707 148.67 0.798134 148.634 1.08162L143.455 38.0248C143.424 38.2612 143.222 38.4375 142.985 38.4355L137.986 38.4255C137.704 38.4215 137.489 38.1731 137.525 37.8946Z" fill="#F9F7F8"/>
<path d="M163.64 15.316C164.521 10.4006 165.216 5.7757 165.723 1.44229C165.778 0.946445 166.201 0.571802 166.705 0.5708L170.832 0.58082C171.184 0.588833 171.45 0.902368 171.403 1.25197L166.224 37.8045C166.178 38.1641 165.87 38.4335 165.503 38.4356H160.985C160.525 38.4356 160.28 38.2052 160.254 37.7444L159.272 23.1594C159.27 23.0502 159.163 22.9731 159.052 22.9992C158.918 23.0252 158.842 23.1053 158.822 23.2396C158.14 27.8074 157.459 32.6487 156.778 37.7644C156.718 38.2112 156.461 38.4356 156.007 38.4356H151.649C151.309 38.4315 151.049 38.135 151.098 37.8045L156.257 1.23193C156.317 0.804203 156.564 0.590839 156.998 0.590839L161.486 0.58082C161.888 0.578816 162.22 0.886347 162.247 1.28202L163.229 15.296C163.309 16.3838 163.446 16.3909 163.64 15.316Z" fill="#F9F7F8"/>
<path d="M173.897 37.7944L179.046 1.22189C179.075 1.01955 179.234 0.860277 179.437 0.831227C182.783 0.310336 185.911 0.260249 188.823 0.680969C192.399 1.20186 192.93 5.11856 192.529 8.22387C191.701 14.7009 190.832 20.8655 189.925 26.7155C189.043 32.4052 188.973 36.4622 183.614 38.0549C181.15 38.7861 177.333 38.4155 174.428 38.4155C174.099 38.4125 173.848 38.12 173.897 37.7944ZM181.02 32.9962L182.612 33.2166C182.869 33.2517 183.106 33.0724 183.143 32.8159L186.629 7.69296C186.776 6.64116 186.404 5.71959 185.798 5.63945L185.467 5.59938C184.862 5.50723 184.25 6.28956 184.105 7.34236L180.619 32.4653C180.583 32.7218 180.762 32.9602 181.02 32.9962Z" fill="#F9F7F8"/>
<path d="M246.421 27.3566L244.398 38.0349C244.355 38.2492 244.167 38.4045 243.947 38.4055L238.858 38.4656C238.564 38.4706 238.34 38.2032 238.398 37.9147L245.86 0.961479C245.903 0.74611 246.092 0.590842 246.311 0.590842L257.48 0.570804C257.751 0.569802 257.964 0.801197 257.941 1.07166L254.896 38.0349C254.875 38.2693 254.681 38.4506 254.445 38.4556L249.607 38.4456C249.335 38.4466 249.122 38.2142 249.146 37.9447L250.078 27.4067C250.102 27.1322 249.881 26.8988 249.607 26.9058L246.862 26.976C246.643 26.982 246.458 27.1412 246.421 27.3566ZM250.829 5.46919C250.677 5.47119 250.546 5.57937 250.518 5.72963L247.533 21.2962C247.494 21.4956 247.649 21.6799 247.854 21.6769L250.328 21.6869C250.493 21.6869 250.633 21.5617 250.649 21.3964L252.061 5.81978C252.078 5.63046 251.93 5.46819 251.74 5.46919H250.829Z" fill="#F9F7F8"/>
<path d="M269.501 23.4599L267.477 38.2252C267.457 38.3584 267.377 38.4255 267.237 38.4255L261.698 38.4355C261.584 38.4365 261.498 38.3364 261.517 38.2252L266.656 1.39219C266.697 1.07665 266.943 0.827222 267.257 0.781143C269.908 0.413515 272.536 0.320349 275.141 0.500657C278.386 0.721034 280.022 2.42395 280.049 5.6094C280.079 9.75649 279.508 14.8151 277.755 18.5716C276.406 21.4625 273.898 22.8819 270.232 22.8288C269.804 22.8218 269.561 23.0322 269.501 23.4599ZM272.206 5.45914L270.352 17.4196C270.34 17.5027 270.398 17.5789 270.483 17.5899L270.543 17.5999C271.725 17.7912 273.036 15.6806 273.468 12.8918L273.798 10.7181C274.231 7.93538 273.626 5.52725 272.446 5.33893L272.376 5.32891C272.293 5.31689 272.216 5.375 272.206 5.45914Z" fill="#F9F7F8"/>
<path d="M292.741 15.2759L296.076 15.1858C296.36 15.1768 296.584 15.4252 296.547 15.7067L295.956 20.1643C295.926 20.3907 295.734 20.562 295.505 20.565L291.789 20.575C291.56 20.578 291.367 20.7483 291.338 20.9757L289.745 32.6056C289.707 32.8871 289.932 33.1345 290.216 33.1265L294.914 33.0363C295.198 33.0273 295.422 33.2757 295.385 33.5572L294.764 38.0449C294.734 38.2713 294.542 38.4425 294.313 38.4455H283.525C283.244 38.4476 283.027 38.2021 283.064 37.9247L288.233 0.99151C288.263 0.760115 288.46 0.58882 288.694 0.590824L299.542 0.560773C299.827 0.562777 300.042 0.820218 299.993 1.1017L299.292 5.41908C299.257 5.64146 299.066 5.80674 298.841 5.80975L293.893 5.7797C293.663 5.7827 293.471 5.95299 293.442 6.18038L292.27 14.755C292.232 15.0365 292.456 15.2839 292.741 15.2759Z" fill="#F9F7F8"/>
<path d="M34.6793 18.1408L23.971 18.251C24.9126 17.2193 26.4853 16.1875 26.9761 15.1157C28.038 12.7817 24.4118 11.219 22.8391 10.3175C22.5496 10.1542 22.5085 9.7545 22.7589 9.53613C25.7541 6.87157 22.7189 4.96831 20.5151 3.86643C20.1795 3.69213 20.1575 3.22033 20.475 3.01698C20.5091 2.99494 20.5461 2.97792 20.5852 2.96489C22.2611 2.41696 23.9169 2.30376 25.5537 2.62431C25.9344 2.69743 26.2509 2.88075 26.5053 3.17525L28.5088 5.49923C29.2791 6.40177 30.5563 6.68826 31.6441 6.20042C33.2198 5.49221 34.9858 5.27184 36.9432 5.5393C37.3028 5.58337 37.4791 6.00109 37.2607 6.28958C37.2377 6.31963 37.2117 6.34667 37.1836 6.37071C35.6109 7.70299 33.4272 9.32577 34.8997 11.7399C35.3865 12.5343 35.1902 13.0882 34.3087 13.4027C32.171 14.15 31.7543 15.1688 33.0565 16.458C33.5574 16.9518 34.0983 17.5128 34.6793 18.1408Z" fill="#FE9467"/>
<path d="M25.6439 68.2866C26.6656 68.5801 27.3027 69.0008 27.5571 69.5488C28.9656 72.5669 30.6685 75.2345 32.6659 77.5524C33.1036 78.0573 33.896 78.0383 34.3187 77.5124C37.417 73.6257 39.0027 68.8075 39.0768 63.0577C39.0969 61.7484 39.2672 60.4893 39.5877 59.2812C40.0946 57.404 41.7845 55.7812 44.6564 54.4129C46.179 54.3257 47.7116 53.4242 49.2543 51.7082C51.3038 49.4304 53.1439 46.9661 54.7737 44.3156C56.0158 42.2851 57.6646 41.0931 59.7222 40.7395C60.0267 40.6944 60.1689 40.3358 59.9766 40.0934C59.9756 40.0914 59.9736 40.0904 59.9726 40.0884C58.1755 37.8045 58.1124 35.6738 59.7823 33.6975C61.6555 31.4837 66.073 30.7925 68.8678 30.2315C69.9847 29.9991 70.9343 31.064 70.5767 32.1478C70.5266 32.2981 70.4535 32.4383 70.3603 32.5655L68.5873 34.9796C68.3299 35.3302 68.3299 35.8061 68.5873 36.1516C69.2685 37.0862 70.1299 37.7744 71.1717 38.2152C71.5173 38.3674 71.898 38.0789 71.8559 37.6963C71.8549 37.6893 71.8539 37.6813 71.8529 37.6743C71.5183 35.7109 71.9731 33.8437 73.2152 32.0747C75.0784 29.4101 72.9448 24.5117 78.2038 24.4717C78.6846 24.4677 79.0231 23.9979 78.8749 23.5401C78.5003 22.4111 77.8562 21.4665 76.9416 20.7052C76.1973 20.0812 75.1355 20.0161 74.3271 20.545C72.5441 21.713 71.1517 23.2496 70.15 25.1528C67.6958 29.8108 62.4067 28.4986 59.7322 24.9425C59.2844 24.3475 58.9839 24.4116 58.8306 25.1328C58.0092 28.9724 55.551 30.3648 51.458 29.3099C50.4763 29.0595 50.0656 28.3784 49.5748 27.567C50.8971 26.9389 52.4227 26.8357 54.1526 27.2564C54.6244 27.3736 55.1213 27.2144 55.4348 26.8457C56.136 26.0243 56.6128 25.0086 56.8673 23.8005C57.3381 21.5467 59.662 20.7153 61.0043 22.7688C62.2364 24.662 64.1798 26.3248 66.5839 25.6437C67.0306 25.5155 67.4043 25.2069 67.6156 24.7922C68.9078 22.2278 71.4923 18.9222 74.3872 17.9706C77.9533 16.8086 80.8583 20.8154 81.2389 23.9007C81.4012 25.219 80.4987 26.435 79.1854 26.6654L77.6027 26.9359C76.9346 27.0561 76.611 27.4528 76.6311 28.1279C76.6912 30.2045 76.1763 32.0206 75.0884 33.5772C74.1268 34.9496 73.9064 36.5223 74.237 38.1451C74.5465 39.6887 73.1711 41.043 71.6325 40.7094C68.1265 39.9582 64.891 37.2836 66.674 33.5772C66.8744 33.1565 66.7472 32.9993 66.2934 33.1064C64.7638 33.4731 63.3914 34.008 62.1763 34.7092C61.0154 35.3743 60.6617 36.8849 61.405 38.0048C62.1263 39.0767 63.5387 40.3889 63.5086 41.7112C63.4886 42.8431 62.1964 43.2438 61.2648 43.1336C59.5478 42.9262 58.2156 43.5172 57.268 44.9066C53.6217 50.2458 50.7468 55.3946 44.2858 57.4881C42.112 58.1994 41.531 60.8839 41.531 62.9174C41.531 68.3667 40.0285 73.3683 37.0233 77.9231C35.4006 80.3773 32.6859 81.7496 30.4321 78.6944C28.4687 76.0429 26.7918 73.3282 25.4035 70.5505C25.2562 70.25 25.2232 69.9354 25.3033 69.6089L25.6439 68.2866Z" fill="black"/>
<path d="M34.6793 18.1408C36.0476 18.4143 37.3699 19.0584 38.6461 20.0741C38.9596 20.3206 39.0227 20.6251 38.8364 20.9857C38.7092 21.2061 38.5589 21.4094 38.3856 21.5967C37.1535 22.8489 37.8848 24.7822 39.2371 25.4533C40.8398 26.2407 42.8232 26.9389 45.1873 27.5469C45.5338 27.6331 45.8744 27.607 46.209 27.4668L47.2909 27.016L49.5748 27.5669C50.0656 28.3783 50.4763 29.0595 51.458 29.3099C55.551 30.3647 58.0092 28.9723 58.8306 25.1328C58.9839 24.4115 59.2844 24.3474 59.7321 24.9425C62.4067 28.4985 67.6958 29.8108 70.15 25.1528C71.1517 23.2496 72.544 21.7129 74.3271 20.5449C75.1355 20.016 76.1973 20.0811 76.9416 20.7052C77.8561 21.4665 78.5002 22.4111 78.8749 23.5401C79.0231 23.9978 78.6845 24.4676 78.2037 24.4716C72.9447 24.5117 75.0784 29.4101 73.2152 32.0746C71.9731 33.8437 71.5183 35.7109 71.8529 37.6742C71.912 38.0539 71.5453 38.3594 71.1917 38.2232C71.1847 38.2212 71.1777 38.2182 71.1717 38.2152C70.1299 37.7744 69.2684 37.0862 68.5873 36.1516C68.3298 35.806 68.3298 35.3302 68.5873 34.9796L70.3603 32.5655C71.0395 31.6479 70.4705 30.3397 69.3366 30.2095C69.1803 30.1924 69.022 30.1994 68.8677 30.2315C66.073 30.7925 61.6554 31.4836 59.7822 33.6974C58.1124 35.6738 58.1755 37.8044 59.9725 40.0883C60.1679 40.3258 60.0327 40.6874 59.7291 40.7385C59.7261 40.7385 59.7241 40.7385 59.7221 40.7395C57.6646 41.0931 56.0158 42.2851 54.7737 44.3156C53.1439 46.9661 51.3037 49.4303 49.2542 51.7082C47.7116 53.4242 46.179 54.3257 44.6563 54.4128L20.8857 54.2426L19.9942 46.2389C19.9251 45.6679 19.5584 45.1761 19.0325 44.9467C18.0969 44.5259 17.2655 44.7694 16.5383 45.6779C15.4564 47.0132 14.4006 48.092 13.3729 48.9135C12.6015 49.5275 11.5668 49.6908 10.6482 49.3442C9.78673 49.0166 8.99538 48.639 8.27414 48.2122C7.44573 47.7244 7.48879 47.3337 8.40436 47.0402C10.7414 46.299 12.3511 44.7123 13.2326 42.2821C13.6824 41.034 12.6146 39.7668 11.3083 40.0002C11.2302 40.0142 11.1541 40.0333 11.0789 40.0583C7.59899 41.1932 4.84828 40.1745 2.82482 37.0031C2.53333 36.5423 2.73767 35.9323 3.24554 35.7509C5.42928 34.9626 7.68613 34.635 10.0171 34.7693C11.4726 34.8554 12.4543 34.2414 12.9622 32.9261C13.1284 32.4984 13.1024 32.0807 12.882 31.674C12.1307 30.2816 11.5798 28.2281 12.7919 26.9359C13.0924 26.6213 13.3829 26.6253 13.6633 26.9459C15.9973 29.6806 18.702 26.3148 19.8539 24.5217C21.2363 22.364 22.6087 20.2745 23.971 18.251L34.6793 18.1408ZM19.2149 32.0426C19.2138 31.4556 18.738 30.9808 18.151 30.9818L17.8305 30.9828C17.2445 30.9838 16.7697 31.4596 16.7707 32.0466L16.7857 40.5812C16.7867 41.1672 17.2625 41.642 17.8495 41.641L18.1701 41.64C18.7561 41.639 19.2309 41.1632 19.2299 40.5772L19.2149 32.0426ZM24.0611 36.4321L27.2366 40.9899C27.3798 41.1993 27.5812 41.3625 27.8176 41.4607C28.4717 41.7542 28.9555 41.6741 29.27 41.2203C29.4634 40.9328 29.5635 40.6153 29.5706 40.2687C29.5966 37.3837 29.5706 34.592 29.4904 31.8943C29.4704 31.2532 29.1398 30.9457 28.4987 30.9728L28.1181 30.9928C27.51 31.0189 27.2125 31.3364 27.2266 31.9444L27.3167 36.0615C27.3297 36.6825 27.1564 36.7386 26.7958 36.2318L24.1012 32.4052C22.218 29.7336 21.2764 30.0342 21.2764 33.3068L21.2864 40.5692C21.2864 41.1632 21.5799 41.5168 22.1679 41.631C22.4344 41.6841 22.6988 41.6671 22.9593 41.5809C23.3599 41.4537 23.5603 41.1802 23.5603 40.7595V36.5924C23.5603 36.0044 23.7266 35.9513 24.0611 36.4321ZM31.2835 32.2149V40.5892C31.2835 41.2253 31.7984 41.7412 32.4355 41.7412H34.5391C37.1776 41.7412 39.3172 39.4623 39.3172 36.6525V36.1516C39.3172 33.3408 37.1776 31.0629 34.5391 31.0629H32.4355C31.7984 31.0629 31.2835 31.5788 31.2835 32.2149ZM43.304 32.0847C43.304 31.4816 42.8152 30.9928 42.2122 30.9928H41.9317C41.3287 30.9928 40.8398 31.4816 40.8398 32.0847V40.5592C40.8398 41.1622 41.3287 41.651 41.9317 41.651H42.2122C42.8152 41.651 43.304 41.1622 43.304 40.5592V32.0847ZM51.5381 40.4991C51.6483 41.2003 52.1692 41.8614 52.9505 41.7812C53.3041 41.7472 53.5716 41.5839 53.7519 41.2904C53.9653 40.9428 54.0053 40.5822 53.8721 40.2086C52.8434 37.2365 51.7345 34.3846 50.5464 31.6539C50.286 31.0589 49.8112 30.8556 49.124 31.0429C48.6702 31.1681 48.3066 31.4947 48.1423 31.9244L44.8968 40.3288C44.5983 41.1141 45.2624 41.9285 46.0918 41.7933C46.1279 41.7883 46.1629 41.7803 46.199 41.7712C46.9132 41.5769 47.3239 41.076 47.4311 40.2687C47.4772 39.868 47.7046 39.6736 48.1123 39.6877L50.6566 39.7378C51.0964 39.7418 51.469 40.0633 51.5381 40.4991Z" fill="#F9F7F8"/>
<path d="M18.1513 30.9823L17.8308 30.9828C17.2444 30.9839 16.7698 31.4601 16.7708 32.0465L16.7857 40.5811C16.7867 41.1675 17.263 41.6421 17.8494 41.641L18.1699 41.6405C18.7564 41.6395 19.2309 41.1632 19.2299 40.5768L19.215 32.0422C19.214 31.4558 18.7378 30.9812 18.1513 30.9823Z" fill="black"/>
<path d="M23.5603 36.5924V40.7595C23.5603 41.1802 23.3599 41.4537 22.9593 41.5809C22.6988 41.6671 22.4344 41.6841 22.1679 41.631C21.5799 41.5168 21.2864 41.1632 21.2864 40.5692L21.2764 33.3068C21.2764 30.0342 22.218 29.7337 24.1012 32.4052L26.7958 36.2318C27.1564 36.7386 27.3297 36.6826 27.3167 36.0615L27.2266 31.9444C27.2125 31.3364 27.51 31.0189 28.1181 30.9928L28.4987 30.9728C29.1398 30.9457 29.4704 31.2533 29.4904 31.8944C29.5706 34.592 29.5966 37.3837 29.5706 40.2687C29.5635 40.6153 29.4634 40.9328 29.27 41.2203C28.9555 41.6741 28.4717 41.7542 27.8176 41.4607C27.5812 41.3626 27.3798 41.1993 27.2366 40.9899L24.0611 36.4321C23.7266 35.9513 23.5603 36.0044 23.5603 36.5924Z" fill="black"/>
<path d="M31.2835 32.2149C31.2835 31.5788 31.7983 31.0629 32.4354 31.0629H34.539C37.1776 31.0629 39.3172 33.3408 39.3172 36.1516V36.6525C39.3172 39.4623 37.1776 41.7412 34.539 41.7412H32.4354C31.7983 41.7412 31.2835 41.2253 31.2835 40.5892V32.2149ZM33.5373 33.8677L33.5774 38.9965C33.5774 39.2449 33.7787 39.4473 34.0282 39.4473H34.3788C35.7611 39.4363 36.873 38.3324 36.863 36.9831V35.8411C36.852 34.4908 35.7211 33.405 34.3387 33.417H33.9881C33.7387 33.417 33.5373 33.6183 33.5373 33.8677Z" fill="black"/>
<path d="M42.2122 30.9928H41.9317C41.3287 30.9928 40.8399 31.4817 40.8399 32.0847V40.5592C40.8399 41.1622 41.3287 41.651 41.9317 41.651H42.2122C42.8152 41.651 43.3041 41.1622 43.3041 40.5592V32.0847C43.3041 31.4817 42.8152 30.9928 42.2122 30.9928Z" fill="black"/>
<path d="M50.6566 39.7377L48.1123 39.6877C47.7046 39.6736 47.4772 39.868 47.4311 40.2686C47.3239 41.076 46.9132 41.5769 46.199 41.7712C45.3866 41.9876 44.6444 41.2443 44.8627 40.4319C44.8728 40.3969 44.8838 40.3628 44.8968 40.3287L48.1423 31.9244C48.3066 31.4946 48.6702 31.1681 49.124 31.0429C49.8112 30.8555 50.286 31.0589 50.5465 31.6539C51.7345 34.3846 52.8434 37.2365 53.8721 40.2085C54.0054 40.5822 53.9653 40.9428 53.7519 41.2904C53.5716 41.5839 53.3042 41.7472 52.9506 41.7812C52.1692 41.8614 51.6483 41.2002 51.5382 40.499C51.469 40.0633 51.0964 39.7417 50.6566 39.7377ZM49.8052 37.4238C49.9745 37.4348 50.1197 37.3036 50.1257 37.1333C50.1458 36.6725 49.9985 36.2548 49.685 35.8811C49.2703 35.4003 48.9998 35.4704 48.8736 36.0915L48.7634 36.6525C48.6692 37.1193 48.8636 37.3667 49.3444 37.3937L49.8052 37.4238Z" fill="black"/>
<path d="M33.5373 33.8678C33.5373 33.6183 33.7387 33.417 33.9881 33.417H34.3387C35.7211 33.405 36.852 34.4908 36.863 35.8411V36.9831C36.873 38.3324 35.7611 39.4363 34.3788 39.4473H34.0282C33.7787 39.4473 33.5774 39.2449 33.5774 38.9965L33.5373 33.8678Z" fill="#F9F7F8"/>
<path d="M49.8052 37.4238L49.3444 37.3937C48.8636 37.3667 48.6692 37.1193 48.7634 36.6525L48.8736 36.0915C48.9998 35.4705 49.2703 35.4003 49.685 35.8812C49.9985 36.2548 50.1458 36.6725 50.1257 37.1333C50.1197 37.3036 49.9745 37.4348 49.8052 37.4238Z" fill="#F9F7F8"/>
<path d="M119.284 43.2437L114.125 80.0467C114.09 80.3031 113.873 80.4944 113.614 80.4974L108.686 80.5275C108.363 80.5315 108.115 80.244 108.165 79.9265L113.384 43.1235C113.418 42.8671 113.635 42.6748 113.895 42.6728L118.763 42.6527C119.08 42.6497 119.326 42.9292 119.284 43.2437Z" fill="#F9F7F8"/>
<path d="M129.762 65.0711C129.762 65.024 129.738 65.001 129.692 65.001L129.421 65.011C129.381 65.011 129.354 65.0711 129.341 65.1913L127.418 80.2971C127.398 80.4504 127.314 80.5275 127.167 80.5275L121.908 80.5075C121.748 80.5075 121.678 80.4274 121.698 80.2671L126.917 43.3239C126.966 42.9443 127.291 42.6588 127.678 42.6528L132.326 42.6427C132.603 42.6367 132.835 42.8471 132.857 43.1236L133.959 57.8187C133.965 57.8448 133.972 57.8588 133.979 57.8588L134.26 57.8688C134.366 57.8748 134.426 57.8247 134.44 57.7185L136.433 43.3139C136.483 42.9362 136.808 42.6538 137.195 42.6528L141.492 42.6427C141.933 42.6427 142.123 42.8591 142.063 43.2939L136.864 80.0868C136.829 80.3282 136.622 80.5105 136.373 80.5175L131.615 80.5275C131.303 80.5335 131.04 80.2971 131.014 79.9866L129.762 65.0711Z" fill="#F9F7F8"/>
<path d="M159.513 75.0882C156.968 81.98 150.668 80.3973 144.948 80.5375C144.683 80.5396 144.48 80.3112 144.517 80.0567L149.666 43.5343C149.714 43.2057 149.966 42.9493 150.287 42.9032C153.999 42.3152 157.215 42.3152 159.933 42.9032C163.72 43.7246 163.47 48.5829 163.059 51.558C162.311 57.0875 161.509 62.687 160.655 68.3567C160.04 72.4637 159.659 74.7076 159.513 75.0882ZM151.569 75.0281L153.362 75.2786C153.564 75.3086 153.752 75.1694 153.783 74.968L157.129 50.7867C157.353 49.1689 157.129 47.7986 156.628 47.7214L155.937 47.6213C155.432 47.5491 154.839 48.8103 154.614 50.4361L151.259 74.6174C151.235 74.8158 151.372 74.9971 151.569 75.0281Z" fill="#F9F7F8"/>
<path d="M177.764 43.1736L172.595 80.1168C172.564 80.3532 172.362 80.5295 172.124 80.5275L167.126 80.4975C166.844 80.4934 166.629 80.245 166.665 79.9665L171.874 43.0835C171.908 42.8551 172.103 42.6848 172.335 42.6828L177.293 42.6327C177.583 42.6287 177.807 42.8861 177.764 43.1736Z" fill="#F9F7F8"/>
<path d="M187.3 69.4185L185.307 80.1168C185.264 80.3312 185.075 80.4865 184.856 80.4875L179.757 80.5375C179.458 80.5446 179.23 80.2691 179.297 79.9766L186.749 43.0535C186.791 42.8381 186.981 42.6828 187.2 42.6828L198.379 42.6427C198.65 42.6417 198.863 42.8731 198.84 43.1436L195.805 80.0968C195.784 80.3312 195.589 80.5125 195.354 80.5175H190.496C190.224 80.5185 190.011 80.2861 190.035 80.0167L190.977 69.4887C191 69.2182 190.786 68.9868 190.516 68.9878L187.741 69.0379C187.522 69.0439 187.337 69.2032 187.3 69.4185ZM188.482 63.1378C188.418 63.4744 188.68 63.7849 189.023 63.7789L191.037 63.7589C191.312 63.7549 191.542 63.5425 191.568 63.268L192.94 48.062C192.98 47.6473 192.557 47.3448 192.178 47.5161C192.175 47.5181 192.172 47.5191 192.169 47.5211L191.628 47.7715C191.47 47.8457 191.358 47.9909 191.327 48.1622L188.482 63.1378Z" fill="#F9F7F8"/>
<path d="M20.8857 54.2425L44.6563 54.4128C41.7844 55.7812 40.0945 57.4039 39.5877 59.2811C39.2671 60.4892 39.0968 61.7484 39.0768 63.0576C39.0027 68.8074 37.417 73.6257 34.3187 77.5123C33.8959 78.0382 33.1036 78.0573 32.6658 77.5524C30.6684 75.2344 28.9655 72.5669 27.5571 69.5487C27.3027 69.0008 26.6656 68.5801 25.6438 68.2866L24.5119 66.0728C25.0057 65.2574 25.0789 64.5061 24.7323 63.8189C22.9422 60.2528 21.66 57.0604 20.8857 54.2425Z" fill="#57BE92"/>
</g>
<defs>
<clipPath id="clip0_12_119">
<rect width="299.487" height="80.4637" fill="white" transform="scale(1.00171)"/>
</clipPath>
</defs>
</svg>
